<svg id="Layer_1" enable-background="new 0 0 53 53" viewBox="0 0 53 53" xmlns="http://www.w3.org/2000/svg" width="300" height="300" version="1.1" xmlns:xlink="http://www.w3.org/1999/xlink" xmlns:svgjs="http://svgjs.dev/svgjs"><g width="100%" height="100%" transform="matrix(1,0,0,1,0,0)"><g><g><path d="m38.9580269 49.5400467c.4299927.2800293.8899536.5300293 1.3800049.7700195-.4500122.1199951-.9200439.1900024-1.4000244.1900024h-3c1.1199951.0000001 2.1599731-.3500366 3.0200195-.9600219z" fill="#6b7280" fill-opacity="1" data-original-color="#000000ff" stroke="none" stroke-opacity="1"/><path d="m38.9384117 51h-3c-.2763672 0-.5-.2236328-.5-.5s.2236328-.5.5-.5c.9853516 0 1.9296875-.300293 2.7304688-.8676758.1660156-.1176758.390625-.1230469.5625-.0112305.375.2446289.8085938.4868164 1.3261719.7397461.1875.0917969.2978516.2900391.2783203.4975586-.0205078.2075195-.1679688.3808594-.3691406.4345703-.5146485.1372071-1.0283204.2070313-1.5283204.2070313z" fill="#6b7280" fill-opacity="1" data-original-color="#000000ff" stroke="none" stroke-opacity="1"/></g><g><path d="m44.2480049 7.8100648v23.6400142c-1.0499878-.6900024-1.9199829-1.3200073-2.5-1.75-.1500244-.1200562-.3200073-.2000122-.5-.2300415v-21.6599727c0-2.9299927-2.3800049-5.3099976-5.3099976-5.3099976h3c2.9299927 0 5.3099976 2.3800049 5.3099976 5.3099976z" fill="#6b7280" fill-opacity="1" data-original-color="#000000ff" stroke="none" stroke-opacity="1"/><path d="m44.247982 31.9501953c-.0957031 0-.1914063-.0273438-.2744141-.0820313-.828125-.5444336-1.6542969-1.1220703-2.5234375-1.7661133-.1005859-.0805664-.1914063-.1230469-.2841797-.1386719-.2412109-.0400391-.4179688-.2485352-.4179688-.4931641v-21.6601561c.0000001-2.6523438-2.1572264-4.8100586-4.8095702-4.8100586-.2763672 0-.5-.2236328-.5-.5s.2236328-.5.5-.5h3c3.203125 0 5.8095703 2.6064453 5.8095703 5.8100586v23.6401367c0 .1835938-.1005859.3530273-.2626953.4399414-.0742187.0400391-.15625.0600586-.2373047.0600586zm-2.5-2.8383789c.109375.0532227.2138672.1196289.3125.1977539.5722656.4243164 1.1318359.8227539 1.6875 1.203125v-22.7026367c0-2.5629883-2.0146484-4.6645508-4.5439453-4.8027344 1.5351563 1.046875 2.5439453 2.809082 2.5439453 4.8027344z" fill="#6b7280" fill-opacity="1" data-original-color="#000000ff" stroke="none" stroke-opacity="1"/></g><g><path d="m35.9384117 51h-28.1201167c-3.2089844 0-5.8203125-2.6064453-5.8203125-5.8100586v-37.3798828c0-3.2036133 2.6113281-5.8100586 5.8203125-5.8100586h28.1201172c3.203125 0 5.8095703 2.6064453 5.8095703 5.8100586v21.6601563c0 .2763672-.2236328.5-.5.5s-.5-.2236328-.5-.5v-21.6601563c-.0000005-2.6523438-2.157227-4.8100586-4.8095708-4.8100586h-28.1201167c-2.6582031 0-4.8203125 2.1577148-4.8203125 4.8100586v37.3798828c0 2.6523438 2.1621094 4.8100586 4.8203125 4.8100586h28.1201172c.9853516 0 1.9296875-.300293 2.7304688-.8676758.2246094-.159668.5361328-.1083984.6972656.1186523.1591797.2250977.1064453.5371094-.1191406.6967773-.9707037.6884767-2.1152349 1.0522462-3.3085943 1.0522462z" fill="#6b7280" fill-opacity="1" data-original-color="#000000ff" stroke="none" stroke-opacity="1"/></g><g><g><path d="m24.7450523 30.2490234c-.3603516 0-.7177734-.1083984-1.0224609-.3188477-.4814453-.3325195-.7685547-.8793945-.7685547-1.4633789v-5.7099609c0-.3222656-.1347656-.6376953-.3701172-.8647461-.2109375-.2036133-.4736328-.3012695-.75-.3007813-.2675972.0107422-.5292969.1264648-.7158203.3173828-.2119141.2075195-.3242188.4765625-.3242188.7631836v5.7949219c0 .5839844-.2861328 1.1313477-.765625 1.4633789-.4833984.3349609-1.1025391.4121094-1.6591797.203125-2.1318359-.800293-3.5634766-2.8676758-3.5634766-5.1445313v-.3549805c0-2.105957-.8632813-4.1835938-2.4306641-5.8500977-1.4697266-1.5634766-2.2099609-3.6938477-2.0322266-5.8447266.3046875-3.5839844 3.2265625-6.5488281 6.7958984-6.8984375 1.6689453-.1645508 3.3369141.2192383 4.7363281 1.0795898 1.3984375-.8569336 3.0546875-1.2407227 4.7070313-1.0849609 3.5771484.3383789 6.5078125 3.2944336 6.8183594 6.8754883.1884766 2.1635742-.5517578 4.3041992-2.0322266 5.8725586-1.5634766 1.6635742-2.4248047 3.7416992-2.4248047 5.8505859v.3549805c0 2.2768555-1.4316406 4.3442383-3.5634766 5.1445313-.2060544.0776369-.4208982.1157228-.6347654.1157228zm-2.8779296-9.6582031c.5234375 0 1.0214844.2050781 1.4111328.581543.4296875.4145508.6757813.9921875.6757813 1.5844727v5.7099609c0 .2592773.1230469.4926758.3369141.640625.2177734.1513672.484375.1850586.7363281.0898438 1.7441406-.6547852 2.9160156-2.3461914 2.9160156-4.2084961v-.3549805c0-2.3647461.9580078-4.6855469 2.6962891-6.5351563 0-.0004883 0-.0004883.0009766-.0009766 1.2851563-1.3613281 1.9277344-3.2202148 1.7636719-5.1005859-.2695313-3.1079102-2.8134766-5.6728516-5.9160156-5.9667969-1.5556641-.1464844-3.0537109.2329102-4.3339844 1.0991211-.1699219.1152344-.3916016.1147461-.5615234-.0004883-1.2578125-.8549805-2.8027344-1.2431641-4.3564453-1.0932617-3.0976563.3032227-5.6328125 2.8769531-5.8974609 5.9868164-.15625 1.8955078.4697266 3.6987305 1.7646484 5.0761719 1.7421875 1.8525391 2.7021484 4.1733398 2.7021484 6.5351563v.3549805c0 1.8623047 1.171875 3.5537109 2.9150391 4.2080078.2529297.0947266.5214844.0625.7382813-.0888672.2128906-.1474609.3349609-.3808594.3349609-.6411133v-5.7949219c0-.5571289.21875-1.0791016.6162109-1.4697266.3632813-.3701172.8574219-.5888672 1.3867188-.6098633.0234373-.0009765.0468748-.0014648.0703123-.0014648z" fill="#6b7280" fill-opacity="1" data-original-color="#000000ff" stroke="none" stroke-opacity="1"/></g><g><path d="m24.5067711 12.5117188c-.2597656 0-.4785156-.2011719-.4980469-.4643555-.1982422-2.7763672-2.3339844-3.8735352-2.3554688-3.8842773-.2470703-.1230469-.3466797-.4233398-.2236328-.6704102.1240234-.2475586.421875-.3466797.6708984-.2241211.1083984.0541992 2.6679688 1.3686523 2.90625 4.7075195.0195313.2753906-.1884766.5146484-.4638672.5341797-.0117186.0009766-.0234374.0014649-.0361327.0014649z" fill="#6b7280" fill-opacity="1" data-original-color="#000000ff" stroke="none" stroke-opacity="1"/></g></g><g><g><path d="m28.435482 47h-21.9375c-.2763672 0-.5-.2236328-.5-.5s.2236328-.5.5-.5h21.9375c.2763672 0 .5.2236328.5.5s-.2236328.5-.5.5z" fill="#6b7280" fill-opacity="1" data-original-color="#000000ff" stroke="none" stroke-opacity="1"/></g><g><path d="m31.122982 42.9375h-24.625c-.2763672 0-.5-.2236328-.5-.5s.2236328-.5.5-.5h24.625c.2763672 0 .5.2236328.5.5s-.2236328.5-.5.5z" fill="#6b7280" fill-opacity="1" data-original-color="#000000ff" stroke="none" stroke-opacity="1"/></g><g><path d="m13.310482 38.875h-6.8124995c-.2763672 0-.5-.2236328-.5-.5s.2236328-.5.5-.5h6.8124995c.2763672 0 .5.2236328.5.5s-.2236328.5-.5.5z" fill="#6b7280" fill-opacity="1" data-original-color="#000000ff" stroke="none" stroke-opacity="1"/></g><g><path d="m31.8983727 38.8798828h-16.2802735c-.2763672 0-.5-.2236328-.5-.5s.2236328-.5.5-.5h16.2802734c.2763672 0 .5.2236328.5.5s-.2236328.5-.4999999.5z" fill="#6b7280" fill-opacity="1" data-original-color="#000000ff" stroke="none" stroke-opacity="1"/></g><g><path d="m25.872982 34.8125h-19.375c-.2763672 0-.5-.2236328-.5-.5s.2236328-.5.5-.5h19.375c.2763672 0 .5.2236328.5.5s-.2236328.5-.5.5z" fill="#6b7280" fill-opacity="1" data-original-color="#000000ff" stroke="none" stroke-opacity="1"/></g><g><path d="m32.4784508 34.8100586h-3.7304688c-.2763672 0-.5-.2236328-.5-.5s.2236328-.5.5-.5h3.7304688c.2763672 0 .5.2236328.5.5s-.2236328.5-.5.5z" fill="#6b7280" fill-opacity="1" data-original-color="#000000ff" stroke="none" stroke-opacity="1"/></g></g><g><path d="m41.0038414 51c-.2548828 0-.5097656-.0541992-.7412109-.1630859-7.8886719-3.7514648-9.0693359-12.5712891-9.2431641-15.1850586-.0556641-.7412109.3867188-1.4384766 1.1025391-1.7299805 3.1220703-1.2587891 6.2578125-3.4389648 7.8486328-4.6264648.6171875-.4755859 1.4570313-.4770508 2.0839844.0043945 1.2597656.9472656 4.5537109 3.300293 7.8398438 4.6210938.7158203.2919922 1.1484375.9692383 1.1044922 1.7265625v.0043945c-.1728516 2.6132813-1.3515625 11.4326172-9.25 15.184082-.2343751.109375-.4902345.1640625-.7451173.1640625zm.0039063-21.0571289c-.1523438 0-.3037109.050293-.4335938.1499023-1.6357422 1.2207031-4.8515625 3.4555664-8.0771484 4.7558594-.3144531.128418-.5039063.4160156-.4794922.7324219.1650391 2.480957 1.2773438 10.8349609 8.671875 14.3515625.1933594.0908203.4355469.0908203.6328125-.0009766 7.4003906-3.5151367 8.5136719-11.862793 8.6787109-14.3427734.0175781-.3237305-.1708984-.6142578-.4814453-.7412109-3.2724609-1.3149414-6.4609375-3.5415039-8.0703125-4.7519531-.1328316-.1015626-.2871094-.1528321-.4414062-.1528321zm9.4921875 5.6757812h.0097656z" fill="#6b7280" fill-opacity="1" data-original-color="#000000ff" stroke="none" stroke-opacity="1"/></g><g><path d="m41.247982 45.0219727c-2.7177734 0-4.9287109-2.2109375-4.9287109-4.9282227s2.2109375-4.9282227 4.9287109-4.9282227 4.9287109 2.2109375 4.9287109 4.9282227-2.2109374 4.9282227-4.9287109 4.9282227zm0-8.8564454c-2.1660156 0-3.9287109 1.762207-3.9287109 3.9282227s1.7626953 3.9282227 3.9287109 3.9282227 3.9287109-1.762207 3.9287109-3.9282227-1.7626952-3.9282227-3.9287109-3.9282227z" fill="#6b7280" fill-opacity="1" data-original-color="#000000ff" stroke="none" stroke-opacity="1"/></g><g><path d="m40.4550133 41.8251953c-.1279297 0-.2558594-.0488281-.3535156-.1464844l-.8876953-.8876953c-.1953125-.1953125-.1953125-.5117188 0-.7070313s.5117188-.1953125.7070313 0l.5341797.5341797 2.2441406-2.2436523c.1953125-.1953125.5117188-.1953125.7070313 0s.1953125.5117188 0 .7070313l-2.5976563 2.597168c-.0976563.0976562-.225586.1464843-.3535157.1464843z" fill="#6b7280" fill-opacity="1" data-original-color="#000000ff" stroke="none" stroke-opacity="1"/></g></g></g></svg>