<svg id="Layer_1" viewBox="0 0 64 64" xmlns="http://www.w3.org/2000/svg" data-name="Layer 1" width="300" height="300" version="1.1" xmlns:xlink="http://www.w3.org/1999/xlink" xmlns:svgjs="http://svgjs.dev/svgjs"><g width="100%" height="100%" transform="matrix(1,0,0,1,0,0)"><path d="m7.791 35.828c.707 1.079 1.349 2.2 1.91 3.336 2.192 4.385 2.497 7.85 2.849 11.861.046.518.092 1.044.143 1.581.465 5.041.866 9.395 4.964 9.395 1.905 0 2.526-2.52 3.385-6.007 1.053-4.273 2.362-9.592 5.924-9.592 3.54 0 4.702 5.304 5.635 9.566.767 3.502 1.321 6.033 3.248 6.033 4.179 0 4.935-4.444 5.391-9.394l.135-1.518c.348-4.005.647-7.464 2.807-11.827.527-1.074 1.188-2.232 1.96-3.435.19-.291.37-.594.542-.907.455-.801.855-1.699 1.214-2.647 6.729-1.632 11.747-7.69 11.747-14.913 0-8.469-6.891-15.36-15.36-15.36-6.066 0-11.307 3.544-13.801 8.663-1.303.468-2.383.761-3.516.761-1.566 0-3.042-.566-4.605-1.165-3.064-1.175-6.536-2.506-11.684-.118-2.635 1.219-4.555 3.691-5.554 7.149-1.67 5.777-.548 13.571 2.669 18.538zm36.491-31.828c7.367 0 13.36 5.993 13.36 13.36s-5.993 13.36-13.36 13.36-13.359-5.993-13.359-13.36 5.993-13.36 13.359-13.36zm-37.239 13.845c.581-2.011 1.829-4.666 4.474-5.889 4.381-2.032 7.173-.961 10.127.17 1.664.638 3.385 1.297 5.321 1.297.911 0 1.773-.154 2.583-.367-.4 1.367-.625 2.809-.625 4.304 0 8.469 6.891 15.36 15.359 15.36.441 0 .874-.03 1.306-.066-.204.45-.42.883-.651 1.291-.153.279-.308.539-.476.795-.816 1.273-1.516 2.498-2.075 3.637-2.325 4.698-2.641 8.331-3.006 12.538l-.134 1.506c-.579 6.285-1.618 7.545-3.328 7.578-.48-.421-1.011-2.844-1.364-4.46-1.029-4.701-2.439-11.138-7.589-11.138s-6.71 6.423-7.865 11.113c-.411 1.669-1.033 4.192-1.443 4.485-1.827 0-2.411-1.487-2.973-7.581-.05-.534-.096-1.057-.141-1.569-.37-4.215-.69-7.855-3.051-12.577-.595-1.204-1.277-2.395-2.025-3.537-2.88-4.445-3.922-11.707-2.424-16.891z" fill="#ffffff" fill-opacity="1" data-original-color="#000000ff" stroke="none" stroke-opacity="1"/><path d="m18.528 15.863c.271.097.547.202.831.311l.113.043c.117.044.237.066.355.066.403 0 .783-.246.935-.645.196-.516-.062-1.094-.579-1.29l-.112-.043c-.298-.113-.586-.223-.869-.324-.519-.186-1.092.083-1.278.604-.187.52.085 1.092.604 1.278z" fill="#ffffff" fill-opacity="1" data-original-color="#000000ff" stroke="none" stroke-opacity="1"/><path d="m10.713 28.267c.09 0 .181-.012.271-.038.532-.149.843-.701.693-1.232-.77-2.746-.844-5.847-.193-8.094.301-1.04.895-2.389 2.015-2.908.298-.138.587-.254.869-.349.523-.176.805-.744.628-1.267-.176-.522-.743-.805-1.267-.628-.347.117-.704.26-1.07.43-1.806.836-2.681 2.728-3.097 4.167-.758 2.623-.688 6.058.189 9.188.124.442.525.731.962.731z" fill="#ffffff" fill-opacity="1" data-original-color="#000000ff" stroke="none" stroke-opacity="1"/><path d="m37.099 20.999h3.577v3.577c0 .552.447 1 1 1h5.277c.553 0 1-.448 1-1v-3.577h3.577c.553 0 1-.448 1-1v-5.277c0-.552-.447-1-1-1h-3.577v-3.577c0-.552-.447-1-1-1h-5.277c-.553 0-1 .448-1 1v3.577h-3.577c-.553 0-1 .448-1 1v5.277c0 .552.447 1 1 1zm1-5.277h3.577c.553 0 1-.448 1-1v-3.577h3.277v3.577c0 .552.447 1 1 1h3.577v3.277h-3.577c-.553 0-1 .448-1 1v3.577h-3.277v-3.577c0-.552-.447-1-1-1h-3.577z" fill="#ffffff" fill-opacity="1" data-original-color="#000000ff" stroke="none" stroke-opacity="1"/></g></svg>