<svg id="Layer_1" viewBox="0 0 96 96" xmlns="http://www.w3.org/2000/svg" data-name="Layer 1" width="300" height="300" version="1.1" xmlns:xlink="http://www.w3.org/1999/xlink" xmlns:svgjs="http://svgjs.dev/svgjs"><g width="100%" height="100%" transform="matrix(1,0,0,1,0,0)"><path d="m70.38 64a5.6 5.6 0 0 0 -2.88-.48c-1.29-7.56-4.71-12.82-8.36-17.31a16.72 16.72 0 0 0 6.4-8.21 3.27 3.27 0 0 0 .54 0 4.85 4.85 0 0 0 4.6-5 4.84 4.84 0 0 0 -4.6-5.05 4.58 4.58 0 0 0 -.53 0 17.7 17.7 0 0 0 -12.18-10.9h-.11a19.5 19.5 0 0 0 -6.18-.67 8.78 8.78 0 0 0 -2.62-4.64 2.2 2.2 0 0 0 -1.61-.52 2.83 2.83 0 0 0 -2 1l-.3.36a18.64 18.64 0 0 1 -3.23 3.28 1.37 1.37 0 0 0 -.28-.05 2.45 2.45 0 0 0 -1.44.19l-.3.15a2.52 2.52 0 0 0 -1.09 1.05 1.43 1.43 0 0 0 -.13.28 18.7 18.7 0 0 1 -4.5.68h-.53a2.77 2.77 0 0 0 -1.92 1 2.19 2.19 0 0 0 -.53 1.63 9 9 0 0 0 2.9 5.56 2 2 0 0 0 1.35.54q-.21.51-.39 1a4.93 4.93 0 0 0 -.55 0 4.84 4.84 0 0 0 -4.59 5.11 4.85 4.85 0 0 0 4.59 5 3.31 3.31 0 0 0 .55 0 16.72 16.72 0 0 0 6.4 8.22c-3.65 4.49-7.08 9.75-8.36 17.31a5.6 5.6 0 0 0 -2.88.48 6.18 6.18 0 0 0 -3.34 4.52 10.77 10.77 0 0 0 5.17 11.11 6.18 6.18 0 0 0 5.6.36 5.7 5.7 0 0 0 2.59-2.5c1.59.32 3.17.58 4.72.77.49 1 1 1.94 1.58 2.9v.09a3.59 3.59 0 0 0 6.06 2.57 3.59 3.59 0 0 0 6.06-2.6v-.09c.56-1 1.09-1.93 1.58-2.9 1.54-.19 3.12-.45 4.7-.76a5.76 5.76 0 0 0 2.66 2.52c3.42 1.59 7.87-.71 9.92-5.11s.88-9.32-2.54-10.89zm-4.29-34.09a2.85 2.85 0 0 1 2.59 3.09 2.86 2.86 0 0 1 -2.59 3 15.42 15.42 0 0 0 .31-3 15.22 15.22 0 0 0 -.31-3.09zm-36.18 6.09a2.85 2.85 0 0 1 -2.59-3 2.85 2.85 0 0 1 2.59-3.05 15.16 15.16 0 0 0 0 6.1zm12.22-22.2.29-.35a.77.77 0 0 1 .69-.27 6.87 6.87 0 0 1 2.14 4.25s0 .06 0 .09a.77.77 0 0 1 -.6.37h-.49a22.73 22.73 0 0 0 -4.66.67l-.73-1.42a22.27 22.27 0 0 0 3.36-3.33zm-5.93 4.14.31-.15a.51.51 0 0 1 .29-.06l1.2 2.27a.59.59 0 0 1 -.23.19l-.3.16a1.07 1.07 0 0 1 -.29.08l-1.18-2.29a.83.83 0 0 1 .2-.2zm-5.32 7a6.9 6.9 0 0 1 -2.29-4.32.73.73 0 0 1 .61-.41h.53a21.1 21.1 0 0 0 4.68-.68l.72 1.42a22 22 0 0 0 -3.25 3.34l-.35.41a.83.83 0 0 1 -.65.23zm.72 8a14 14 0 0 1 5.09-10.59 2.52 2.52 0 0 0 1.64-.24l.3-.15a2.48 2.48 0 0 0 1.21-1.31 19 19 0 0 1 4.49-.65h.47a2.83 2.83 0 0 0 2-1 2.46 2.46 0 0 0 .36-.59 17.7 17.7 0 0 1 5 .44 5.56 5.56 0 0 1 -.83 3.15 4.22 4.22 0 0 1 -2.49 1.83 1.21 1.21 0 0 1 -1-.28 1.55 1.55 0 0 1 -.5-.85 1.8 1.8 0 0 1 .66-1.86.83.83 0 0 1 .72-.16.24.24 0 0 1 .08.11 1 1 0 0 0 -.27 1.27 1 1 0 0 0 1.36.39 1.78 1.78 0 0 0 .93-1.64 2.27 2.27 0 0 0 -1.23-1.93 2.75 2.75 0 0 0 -2.73.32 3.79 3.79 0 0 0 -1.45 3.91 3.53 3.53 0 0 0 1.1 1.89 3.21 3.21 0 0 0 2.64.73 6.18 6.18 0 0 0 3.85-2.73 7.43 7.43 0 0 0 1.09-3.64 15.35 15.35 0 0 1 9.78 10v.09a13.06 13.06 0 0 1 .53 3.55 12.89 12.89 0 0 1 -.48 3.52s0 0 0 .06c-1.8 6.3-8.26 11.01-15.92 11.01-9 0-16.4-6.59-16.4-14.59zm25.84 14.34a7.6 7.6 0 0 0 -.35 2.48 3.64 3.64 0 0 1 -.43 2.17 3.63 3.63 0 0 1 -2.15.42 7.19 7.19 0 0 0 -2.58.39 7.21 7.21 0 0 0 -2 1.51c-.65.62-1.32 1.26-1.9 1.26s-1.25-.64-1.9-1.26a7.31 7.31 0 0 0 -2-1.51 7.27 7.27 0 0 0 -2.59-.39 3.63 3.63 0 0 1 -2.15-.42 3.64 3.64 0 0 1 -.43-2.17 7.75 7.75 0 0 0 -.35-2.48 20.09 20.09 0 0 0 18.82 0zm-23.22 28.55a.86.86 0 0 0 -.11.28 3.88 3.88 0 0 1 -1.9 2 4.23 4.23 0 0 1 -3.82-.31 8.27 8.27 0 0 1 -3.39-3.8 8.26 8.26 0 0 1 -.71-5.1 4.2 4.2 0 0 1 2.22-3.11 3.5 3.5 0 0 1 1.49-.32 3.77 3.77 0 0 1 .94.11l.28.08a7.81 7.81 0 0 1 4.49 4.27 8 8 0 0 1 .51 5.9zm12.84 5.83v.09a1.59 1.59 0 1 1 -1.5-2.11 1.42 1.42 0 0 1 .42.06l.18.06a1.62 1.62 0 0 1 .9.93.74.74 0 0 0 0 .14 1.75 1.75 0 0 1 0 .4 1.54 1.54 0 0 1 0 .43zm3.41 1.15a1.58 1.58 0 0 1 -1.42-.87 3.64 3.64 0 0 0 0-1.42 1.57 1.57 0 0 1 .87-.77h.09a1.77 1.77 0 0 1 .46-.07 1.59 1.59 0 1 1 0 3.17zm9.14-7.36v.13c-1 .19-2 .36-3 .5a40.7 40.7 0 0 0 3.39-11.75 1 1 0 0 0 -2-.24 39.63 39.63 0 0 1 -3.88 12.71 1 1 0 0 0 -.07.15c-.3.61-.62 1.23-1 1.84a3.56 3.56 0 0 0 -1.76-1c1.75-3.68 2.07-7.34 2.38-10.89.08-1 .17-2 .29-3a1 1 0 0 0 -2-.24c-.13 1-.22 2-.31 3.07-.28 3.86-.6 7.56-2.65 11.27a3.61 3.61 0 0 0 -1 .64 3.64 3.64 0 0 0 -1-.65c-2.1-3.7-2.42-7.39-2.76-11.3-.09-1-.18-2.05-.31-3.07a1 1 0 1 0 -2 .24c.12 1 .21 2 .29 3 .31 3.55.63 7.21 2.38 10.88a3.58 3.58 0 0 0 -1.76 1.05c-.34-.61-.66-1.23-1-1.84a1 1 0 0 0 -.07-.15 39.63 39.63 0 0 1 -3.77-12.71 1 1 0 0 0 -2 .24 40.7 40.7 0 0 0 3.32 11.75c-1-.14-2-.31-3-.51a10.26 10.26 0 0 0 -.81-6.48 10 10 0 0 0 -5.06-5.09 31.78 31.78 0 0 1 6.45-14.6v.42c0 1.21.08 2.59 1 3.52a5 5 0 0 0 3.51 1 5.81 5.81 0 0 1 1.88.24 6.05 6.05 0 0 1 1.41 1.11 5 5 0 0 0 3.3 1.82 5 5 0 0 0 3.28-1.81 5.64 5.64 0 0 1 1.42-1.11 5.7 5.7 0 0 1 1.87-.24 5 5 0 0 0 3.51-1c.93-.93 1-2.31 1-3.52 0-.14 0-.28 0-.42a31.88 31.88 0 0 1 6.47 14.59 10 10 0 0 0 -5.09 5.1 10.28 10.28 0 0 0 -.85 6.35zm11.44-1.45c-1.58 3.41-4.84 5.27-7.26 4.14a3.84 3.84 0 0 1 -1.87-2 1.16 1.16 0 0 0 -.14-.34 4.61 4.61 0 0 1 -.21-.75 8.22 8.22 0 0 1 .71-5.11 7.74 7.74 0 0 1 4.48-4.27l.28-.08a3.71 3.71 0 0 1 2.46.22c2.5 1.11 3.14 4.8 1.55 8.19z" fill="#ffffff" fill-opacity="1" data-original-color="#000000ff" stroke="none" stroke-opacity="1"/><path d="m44.62 31.32a3.64 3.64 0 0 0 -7.27 0 1 1 0 0 0 2 0 1.64 1.64 0 0 1 3.27 0 1 1 0 0 0 2 0z" fill="#ffffff" fill-opacity="1" data-original-color="#000000ff" stroke="none" stroke-opacity="1"/><path d="m52 39.74a1 1 0 0 0 -1-1h-6a1 1 0 0 0 -1 1 4 4 0 1 0 8.08 0zm-5.82 1h3.56a2 2 0 0 1 -3.56 0z" fill="#ffffff" fill-opacity="1" data-original-color="#000000ff" stroke="none" stroke-opacity="1"/><path d="m52.38 32.32a1 1 0 0 0 1-1 1.64 1.64 0 0 1 3.27 0 1 1 0 0 0 2 0 3.64 3.64 0 0 0 -7.27 0 1 1 0 0 0 1 1z" fill="#ffffff" fill-opacity="1" data-original-color="#000000ff" stroke="none" stroke-opacity="1"/></g></svg>