<svg id="aa" height="512" viewBox="0 0 48 48" width="512" xmlns="http://www.w3.org/2000/svg"><path d="m20 8v-3c0-.55-.45-1-1-1h-6c-.55 0-1 .45-1 1v3h-1.02c-1.64 0-2.98 1.33-2.98 2.98v14.02h-1.02c-.79 0-1.55.31-2.11.87s-.87 1.32-.87 2.11v13.04c0 1.65 1.33 2.98 2.98 2.98h34.04c1.65 0 2.98-1.33 2.98-2.98v-13.04c0-.79-.31-1.55-.87-2.11s-1.32-.87-2.11-.87h-1.02v-14.02c0-.79-.31-1.55-.87-2.11s-1.32-.87-2.11-.87h-3.02v-1.04c0-1.64-1.33-2.96-2.96-2.96h-4.83c-1.12 0-2.15.63-2.65 1.64l-1.18 2.36zm-4 19.99c0 1.67 1.35 3.01 3.01 3.01h9.98c1.66 0 3.01-1.35 3.01-3.01 0-.55.44-.99.99-.99h8.03c.26 0 .51.1.69.29.18.18.29.43.29.69v13.04c0 .54-.44.98-.98.98h-34.04c-.54 0-.98-.44-.98-.98v-13.04c0-.26.1-.51.29-.69.18-.18.43-.29.69-.29h8.03c.54 0 .99.44.99.99zm1 6.51c0 1.38 1.12 2.5 2.5 2.5h9c1.38 0 2.5-1.12 2.5-2.5s-1.12-2.5-2.5-2.5h-9c-1.38 0-2.5 1.12-2.5 2.5zm2 0c0-.28.22-.5.5-.5h9c.28 0 .5.22.5.5s-.22.5-.5.5h-9c-.28 0-.5-.22-.5-.5zm19-9.5v-14.02c0-.26-.1-.51-.29-.69-.18-.18-.43-.29-.69-.29h-4.02c-.55 0-1-.45-1-1v-2.04c0-.53-.43-.96-.96-.96h-4.83c-.36 0-.7.21-.86.53l-1.46 2.92c-.17.34-.52.55-.89.55h-12.02c-.54 0-.98.44-.98.98v14.02h5.01c1.65 0 2.99 1.34 2.99 2.99 0 .56.45 1.01 1.01 1.01h9.98c.56 0 1.01-.45 1.01-1.01 0-1.65 1.34-2.99 2.99-2.99zm-14-2.29s.07.09.09.13c.25.42.46.95.7 1.42.53 1.03 1.26 1.74 2.21 1.74.88 0 1.51-.53 1.84-1.52.22-.66.31-1.57.37-2.47.05-.7.08-1.39.23-1.82.08-.24.23-.36.37-.5.12-.12.24-.24.36-.39.42-.5.83-1.21.83-2.87 0-2.21-.86-4.43-3.25-4.43-.93 0-1.79.49-2.57 1.04-.28.19-.54.39-.8.53-.13.07-.25.14-.38.14s-.25-.07-.38-.14c-.26-.15-.53-.34-.8-.53-.78-.55-1.64-1.04-2.57-1.04-2.39 0-3.25 2.22-3.25 4.43 0 1.66.41 2.37.83 2.87.12.14.24.26.36.39.14.14.28.26.37.5.15.44.18 1.12.23 1.82.07.89.15 1.81.37 2.47.33.99.96 1.52 1.84 1.52.95 0 1.68-.71 2.21-1.74.24-.47.45-1 .7-1.42.02-.04.06-.09.09-.13zm2.91 1.19c-.04-.05-.09-.11-.13-.17-.26-.4-.46-.91-.68-1.37-.25-.52-.54-.98-.86-1.27-.35-.32-.75-.5-1.21-.51h-.05c-.46.01-.86.19-1.21.51-.32.3-.61.75-.86 1.27-.22.46-.43.97-.68 1.37-.04.06-.08.12-.13.17-.05-.14-.11-.33-.14-.48-.24-1.25-.19-3-.51-3.89-.18-.52-.45-.85-.74-1.15-.34-.35-.71-.63-.71-1.95 0-.54.05-1.11.22-1.59.16-.46.45-.84 1.03-.84.27 0 .52.11.76.25.36.2.7.46 1.04.69.66.46 1.32.78 1.96.78s1.29-.32 1.96-.78c.33-.23.68-.49 1.04-.69.24-.13.49-.25.76-.25.57 0 .87.38 1.03.84.17.48.22 1.04.22 1.59 0 1.32-.37 1.61-.71 1.95-.29.3-.55.62-.74 1.15-.31.89-.27 2.64-.51 3.89-.03.15-.09.34-.14.48zm-12.91-15.9v-2h4v2z" fill-rule="evenodd"/></svg>