<svg id="Layer_1" enable-background="new 0 0 64 64" viewBox="0 0 64 64" xmlns="http://www.w3.org/2000/svg"><path d="m41.1757812 3.4277344c-2.9472656-.9472656-6.0351562-1.4277344-9.1757812-1.4277344-1.6787109 0-3.3388672.1357422-4.9326172.4033203-2.3041992.3804932-4.522644 1.0265503-6.6220703 1.9058228-9.0975952 3.8100586-15.9608154 11.9992065-17.8857422 21.9345092-.3710937 1.8549805-.5595703 3.7915039-.5595703 5.7563477 0 4.2724609.8740234 8.3798828 2.5957031 12.2060547 4.8076172 10.8095703 15.5644531 17.7939453 27.4042969 17.7939453 16.5419922 0 30-13.4580078 30-30 0-13.0908203-8.3681641-24.5732422-20.8242188-28.5722656zm-14.1162109 5.4824218c0 9.6660156-7.8632812 17.5297852-17.5292969 17.5297852-1.6397095 0-3.2521973-.2268066-4.8058472-.6743164.0493164-.21698.0980835-.4341431.1524048-.649231.0813599-.3217773.1634521-.6430664.2559204-.9603271.104187-.3574829.2202148-.7097168.3381958-1.0611572.1036987-.309021.2062378-.6184692.3203735-.9225464.1312256-.3496704.2758179-.6925659.4205322-1.0354004.1241455-.2940674.2451782-.5897217.3789673-.8786011.1588745-.3429565.3322754-.6774902.5045166-1.0127563.1420288-.2765503.2794189-.5560303.4302979-.8272095.1878052-.3374634.3913574-.6644897.5925293-.9931641.1563721-.2554321.3062744-.5151978.47052-.7651978.222229-.3381348.4612427-.6637573.6974487-.9915161.1629639-.2261353.3181152-.4584351.4876099-.6794434.2750854-.3586426.5681763-.7020874.8598633-1.0467529.1486206-.1755981.288269-.3590088.44104-.5308838.4530029-.5095825.9229736-1.0036621 1.411438-1.4789429.0063477-.0061646.0132446-.0117188.0195923-.0178223.4829102-.4689331.9832153-.9199829 1.4985962-1.3533936.1676025-.1409302.3457642-.2689819.5166626-.4060059.3615112-.289917.7224731-.5806274 1.0982056-.8526001.2127075-.1539917.43573-.2940674.652832-.4421387.3478394-.2372437.6942749-.4765625 1.0530396-.6982422.2386475-.147522.4862671-.28125.7295532-.4216919.350708-.2023926.7004395-.40625 1.0604248-.593689.258667-.1346436.5248413-.2562256.7880859-.3829346.3569946-.171814.7137451-.3438721 1.0787354-.5007324.2756348-.1184082.557312-.2247314.8373413-.3344116.3642578-.1427002.7290039-.2842407 1.1004028-.4118652.2905273-.0998535.5856934-.1885986.8803711-.2789307.3713989-.1138916.7438965-.2249756 1.121582-.3235474.303833-.0792847.6112671-.1489258.9189453-.2180786.2244873-.0504761.4512329-.0943604.6777344-.1393433.3588868 1.4193729.5413819 2.879639.5413819 4.3530887zm-22.7272949 18.8101197c1.6846924.4692993 3.4255981.7196655 5.197998.7196655 10.7685547 0 19.5292969-8.7612305 19.5292969-19.5297852 0-1.5794067-.196167-3.144104-.5670776-4.6697998 1.1486816-.1442871 2.3176269-.2403564 3.5075073-.2403564 2.6499634 0 5.2530518.385376 7.7603149 1.1080322l-.7417603 5.3660889c-.4384766 3.1992188 1.2226562 6.2998047 4.1425781 7.7192383.8027344.3808594 1.5107422.9760742 2.046875 1.7216797.5244141.7265625.8632812 1.5917969.9794922 2.4990234l.8603516 6.8769531c.1865234 1.5292969-.2753906 3.065918-1.2666016 4.2177734l-3.4003905 3.959961c-1.4746094 1.71875-2.0810547 3.9873047-1.6630859 6.2255859l.7402344 3.9414062c.3017578 1.5996094-.1201172 3.234375-1.1572266 4.4853516-1.0361328 1.2509766-2.5644531 1.96875-4.1904297 1.96875h-4.9804688c-1.2939453 0-2.5517578-.4648438-3.5390625-1.3095703l-8.5195312-7.2871094c-.2929688-.2451171-.5712891-.5449218-.8271485-.8886718l-1.2011719-1.6201172c-1.2685547-1.7099609-3.2119141-2.796875-5.3310547-2.9824219-2.1123047-.1767578-4.2080078.5439453-5.7451172 1.9990234l-.0906982.085022c-1.2449951-3.1937866-1.8760986-6.5796508-1.8760986-10.0859985 0-1.4526367.1142578-2.885376.3322754-4.2797241zm27.6677246 32.2797241c-10.8138428 0-20.6445923-6.2516479-25.2674561-15.9758301l.6053467-.5671387c1.125-1.0644531 2.6621094-1.5966797 4.1992188-1.4628906 1.5507812.1357422 2.9716797.9306641 3.8994141 2.1816406l1.2021484 1.6210938c.3496094.4716797.7373047.8847656 1.140625 1.2226562l8.5117188 7.2802734c1.3496094 1.1542969 3.0683594 1.7900391 4.8388672 1.7900391h4.9804688c2.2236328 0 4.3125-.9814453 5.7304688-2.6923828 1.4189453-1.7119141 1.9951172-3.9472656 1.5820312-6.1318359l-.7392578-3.9394531c-.3066406-1.6376953.1367188-3.2978516 1.2148438-4.5546875l3.3994139-3.9589844c1.3574219-1.5761719 1.9892578-3.6767578 1.734375-5.7666016l-.8603516-6.8828125c-.1591797-1.2397461-.6230469-2.421875-1.3408203-3.4174805-.7333984-1.0180664-1.7060547-1.8339844-2.8037109-2.3549805-2.131836-1.0361327-3.3476563-3.3046874-3.0273438-5.6440429l.6908569-5.0026855c10.9939576 4.0491943 18.3091431 14.440918 18.3091431 26.2561035 0 15.4394531-12.5605469 28-28 28z"/><path d="m32 46.7861328c1.1220703 0 2.0966797-.6396484 2.5449219-1.6699219 2.6591797-6.109375 5.8300781-13.9936523 5.8300781-16.8662109 0-4.6181641-3.7568359-8.375-8.375-8.375s-8.375 3.7568359-8.375 8.375c0 2.8725586 3.1708984 10.7568359 5.8300781 16.8652344.4482422 1.03125 1.4228516 1.6708984 2.5449219 1.6708984zm0-24.9111328c3.515625 0 6.375 2.8598633 6.375 6.375 0 1.9438477-2.0644531 7.8007812-5.6640625 16.0683594-.1835937.421875-.5585937.4677734-.7109375.4677734s-.5273438-.0458984-.7109375-.46875c-3.5996094-8.2666016-5.6640625-14.1235351-5.6640625-16.0673828 0-3.5151367 2.859375-6.375 6.375-6.375z"/><path d="m36.25 28.25c0-2.3432617-1.90625-4.25-4.25-4.25s-4.25 1.9067383-4.25 4.25 1.90625 4.25 4.25 4.25 4.25-1.9067383 4.25-4.25zm-6.5 0c0-1.2407227 1.0097656-2.25 2.25-2.25s2.25 1.0092773 2.25 2.25-1.0097656 2.25-2.25 2.25-2.25-1.0092773-2.25-2.25z"/><path d="m12.9375 39.0625c2.3085938 0 4.1875-1.8789062 4.1875-4.1875 0-2.309082-1.8789062-4.1875-4.1875-4.1875s-4.1875 1.878418-4.1875 4.1875c0 2.3085938 1.8789062 4.1875 4.1875 4.1875zm0-6.375c1.2060547 0 2.1875.9814453 2.1875 2.1875s-.9814453 2.1875-2.1875 2.1875-2.1875-.9814453-2.1875-2.1875.9814453-2.1875 2.1875-2.1875z"/><path d="m35.25 16.8125c1.9296875 0 3.5-1.5703125 3.5-3.5s-1.5703125-3.5-3.5-3.5-3.5 1.5703125-3.5 3.5 1.5703125 3.5 3.5 3.5zm0-5c.8271484 0 1.5.6728516 1.5 1.5s-.6728516 1.5-1.5 1.5-1.5-.6728516-1.5-1.5.6728516-1.5 1.5-1.5z"/><path d="m36.25 46.5c-1.5849609 0-2.875 1.2900391-2.875 2.875s1.2900391 2.875 2.875 2.875 2.875-1.2900391 2.875-2.875-1.2900391-2.875-2.875-2.875zm0 3.75c-.4824219 0-.875-.3925781-.875-.875s.3925781-.875.875-.875.875.3925781.875.875-.3925781.875-.875.875z"/></svg>