<svg id="Layer_1" enable-background="new 0 0 64 64" viewBox="0 0 64 64" xmlns="http://www.w3.org/2000/svg"><path d="m57.21 6.6c-1.43-2.96-3.61-4.96-6.5-5.95-1.71-.59-3.46-.88-5.19-.88-2.4 0-4.83.57-7.21 1.69-1.92.89-4.1 1.36-6.31 1.36s-4.39-.47-6.3-1.37c-2.39-1.12-4.82-1.69-7.22-1.69-1.73 0-3.48.3-5.19.88-2.88.99-5.06 2.99-6.5 5.95-2.58 5.32-2.35 13.16.61 21.5 1.33 3.72 2.14 7.7 2.4 11.83.7 10.99 3.63 23.95 9.59 24.29.07 0 .14.01.2.01 4.16 0 5.87-8.05 7.23-14.52.31-1.49.64-3.05.99-4.43.5-1.96 2.19-3.27 4.19-3.27s3.69 1.31 4.19 3.26c.35 1.38.68 2.94 1 4.44 1.36 6.47 3.05 14.52 7.25 14.52h.17c5.97-.34 8.9-13.3 9.59-24.29.26-4.13 1.06-8.11 2.4-11.83 1.57-4.43 2.4-8.82 2.4-12.7 0-3.4-.6-6.36-1.79-8.8z" fill="rgb(0,0,0)"/></svg>