<svg id="Layer_1" viewBox="0 0 48 48" xmlns="http://www.w3.org/2000/svg" data-name="Layer 1"><path d="m16.94031 47a2.59074 2.59074 0 0 0 2.59076-2.5907l1.97766-13.12909a2.5894 2.5894 0 0 1 2.49127-2.3537 2.49155 2.49155 0 0 1 2.47681 2.22132l1.99212 13.26147a2.59074 2.59074 0 0 0 2.59076 2.5907c2.35871 0 6.10883-4.37108 7.27429-17.74109.86493-7.46918 4.98621-10.55579 4.98621-17.47693 0-3.87884-2.283-10.782-9.50836-10.782-4.25012.00002-5.65741 2.8185-9.80083 2.8185-4.14186 0-5.6067-2.81848-9.82283-2.81848-7.22534 0-9.50836 6.90314-9.50836 10.782 0 6.92114 4.12128 10.00775 4.98621 17.47693 1.15533 13.25379 4.94623 17.74107 7.27429 17.74107z" fill="none" stroke="#353535" stroke-linecap="round" stroke-linejoin="round" stroke-width="2"/><path d="m20.41292 2.01174a27.00427 27.00427 0 0 0 2.3077 1.54726 28.04379 28.04379 0 0 0 2.47165 1.328 14.83315 14.83315 0 0 0 5.30517 1.4989l.01577.00093a.50006.50006 0 0 1 -.01577.99907 16.02515 16.02515 0 0 1 -5.88011-1.11343 29.65527 29.65527 0 0 1 -2.73274-1.17614 28.64084 28.64084 0 0 1 -2.6277-1.45254 1.00136 1.00136 0 1 1 1.06711-1.69479q.03644.02295.07022.04845z" fill="#353535"/></svg>