<svg fill="none" height="24" viewBox="0 0 24 24" width="24" xmlns="http://www.w3.org/2000/svg"><g clip-rule="evenodd" fill="rgb(0,0,0)" fill-rule="evenodd"><path d="m8.32872 16.1354c0-.4142.33579-.75.75-.75h5.81498c.4142 0 .75.3358.75.75s-.3358.75-.75.75h-5.81498c-.41421 0-.75-.3358-.75-.75z"/><path d="m6.80988 5.97765c-.41254.38213-.78296.71057-1.11223 1.0008-.04648.04096-.09199.08104-.13658.1203-.27891.2456-.5218.45949-.73997.66088-.50531.46645-.8245.81864-1.05023 1.21253-.4525.7896-.62085 1.89684-.62085 4.74084 0 2.0561.12307 3.5321.40116 4.6023.273 1.0505.67996 1.6526 1.21906 2.0395.56304.4042 1.36683.6449 2.57723.7697 1.20921.1246 2.71753.1255 4.63853.1255s3.4294-.0009 4.6386-.1255c1.2104-.1248 2.0142-.3655 2.5772-.7697.5391-.3869.9461-.989 1.2191-2.0395.2781-1.0702.4011-2.5462.4011-4.6023 0-2.8441-.1681-3.95134-.6204-4.74096-.2256-.39386-.5447-.74603-1.0499-1.21246-.2183-.20157-.4614-.41567-.7406-.66157-.0443-.03903-.0896-.07887-.1358-.11958-.3292-.29023-.6996-.61867-1.1122-1.00081-.2442-.19721-.4972-.41059-.7594-.63174-.5711-.48174-1.186-1.00034-1.8493-1.46893-.9849-.69577-1.8769-1.12695-2.5964-1.12695-.7171 0-1.5969.43121-2.56885 1.12803-.63428.45475-1.21451.94897-1.7597 1.41334-.28167.23991-.55398.47186-.81957.68628zm1.70527-3.31868c1.00033-.71718 2.21705-1.40897 3.44285-1.40897 1.2225 0 2.4491.68632 3.4619 1.4018.716.50579 1.4242 1.10269 2.0172 1.60236.2529.21313.4848.40858.6873.57171.0136.01094.0268.02235.0396.03421.406.37654.7714.70062 1.1032.9931.045.03966.0895.07887.1336.11765.2779.2447.5361.47207.7685.68665.5392.49789.9931.97409 1.3339 1.56898.6804 1.18788.8188 2.69964.8188 5.48654 0 2.0874-.1218 3.719-.4493 4.9796-.3327 1.2801-.8922 2.2319-1.7962 2.8808-.8801.6317-1.9961.909-3.2981 1.0432-1.2947.1334-2.879.1334-4.7552.1334h-.0743c-1.8763 0-3.46057 0-4.75523-.1334-1.302-.1342-2.41802-.4115-3.29812-1.0432-.90402-.6489-1.46349-1.6007-1.79615-2.8808-.32756-1.2606-.44938-2.8922-.44938-4.9796 0-2.787.13866-4.29876.81941-5.48666.3409-.59486.79489-1.07104 1.33424-1.56891.23218-.21433.49011-.44143.76766-.68582.04434-.03904.08918-.07852.13449-.11845.33182-.29247.6972-.61655 1.10322-.99308.01282-.0119.02606-.02334.03969-.03431.21212-.17075.45968-.38123.73122-.6121.57399-.48801 1.25512-1.06712 1.9352-1.5547z"/></g></svg>