<?xml version="1.0" encoding="utf-8"?>
<!-- Generator: Adobe Illustrator 26.0.0, SVG Export Plug-In . SVG Version: 6.00 Build 0)  -->
<svg version="1.1" id="Layer_1" xmlns="http://www.w3.org/2000/svg" xmlns:xlink="http://www.w3.org/1999/xlink" x="0px" y="0px"
	 viewBox="0 0 89.1 89.1" style="enable-background:new 0 0 89.1 89.1;" xml:space="preserve">
<style type="text/css">
	.st0{fill-rule:evenodd;clip-rule:evenodd;fill:#25B681;}
	.st1{fill-rule:evenodd;clip-rule:evenodd;fill:#FFFFFF;}
</style>
<path class="st0" d="M28.6,13.2c-6.1,0-11.2,4.9-11.2,11v29.9c0,9.8,7.1,18.2,17.4,21.6c0.6,0.2,1.3,0.1,1.9-0.3
	c0.5-0.4,0.9-1,0.9-1.7V61.2c0-2.7,2.8-5.6,7-5.6s7,2.8,7,5.6v12.5c0,0.7,0.3,1.3,0.9,1.7c0.5,0.4,1.2,0.5,1.9,0.3
	c10.3-3.4,17.4-11.8,17.4-21.6V24.2c0-6.1-5-11-11.2-11c-0.8,0-1.6,0.1-2.4,0.3c-2.1,0.5-4.2,1.3-6,2.1l-0.1,0
	c-2.8,1.2-5.1,2.1-7.5,2.1s-4.7-0.9-7.5-2.1l-0.1,0c-1.8-0.8-3.8-1.6-6-2.1C30.2,13.3,29.4,13.2,28.6,13.2z"/>
<path class="st1" d="M7,88.3c-3.5,0-6.3-2.8-6.3-6.3V7c0-3.5,2.8-6.3,6.3-6.3H82c3.5,0,6.3,2.8,6.3,6.3V82c0,3.5-2.8,6.3-6.3,6.3H7z
	 M4.9,82c0,1.2,0.9,2.1,2.1,2.1H82c1.2,0,2.1-0.9,2.1-2.1V7c0-1.2-0.9-2.1-2.1-2.1H7C5.8,4.9,4.9,5.8,4.9,7V82z"/>
</svg>
