<?xml version="1.0" encoding="utf-8"?>
<!-- Generator: Adobe Illustrator 26.0.0, SVG Export Plug-In . SVG Version: 6.00 Build 0)  -->
<svg version="1.1" id="Layer_1" xmlns="http://www.w3.org/2000/svg" xmlns:xlink="http://www.w3.org/1999/xlink" x="0px" y="0px"
	 viewBox="0 0 512 512" style="enable-background:new 0 0 512 512;" xml:space="preserve">
<style type="text/css">
	.st0{clip-path:url(#SVGID_00000096018457955198547430000007489836422578462387_);fill:#F1F2F2;}
	.st1{fill:#58595B;}
	.st2{fill:#808285;}
	.st3{fill:#414042;}
	.st4{fill:#F1F2F2;}
	.st5{fill:#FFFFFF;}
	.st6{fill:#E6E7E8;}
	.st7{fill:#D1D3D4;}
</style>
<g>
	<defs>
		<path id="SVGID_1_" d="M486.2,512.1h-460c-14.1,0-25.8-11.5-25.8-25.8v-460C0.5,12.3,12,0.6,26.3,0.6h460
			c14.1,0,25.8,11.5,25.8,25.8v460C512,500.5,500.4,512.1,486.2,512.1z"/>
	</defs>
	<use xlink:href="#SVGID_1_"  style="overflow:visible;fill:#F1F2F2;"/>
	<clipPath id="SVGID_00000058589307633020621640000014483288311342427793_">
		<use xlink:href="#SVGID_1_"  style="overflow:visible;"/>
	</clipPath>
	
		<rect x="-14.9" y="-15.4" style="clip-path:url(#SVGID_00000058589307633020621640000014483288311342427793_);fill:#F1F2F2;" width="542.7" height="542.7"/>
</g>
<g>
	<g>
		<g>
			<path class="st1" d="M470.8,362.9V149.1c0-8.5-4.7-16.3-12.2-20.6L268.2,21.6c-7.6-4.2-16.9-4.2-24.5,0L53.4,128.5
				c-7.6,4.2-12.2,12.1-12.2,20.6v213.8c0,8.5,4.7,16.3,12.2,20.6l190.4,106.9c7.6,4.2,16.9,4.2,24.5,0l190.4-106.9
				C466.2,379.2,470.8,371.4,470.8,362.9L470.8,362.9z"/>
		</g>
		<g>
			<path class="st2" d="M53.4,128.5c-7.6,4.2-12.2,12.1-12.2,20.6v213.8c0,4.2,1.2,8.3,3.3,11.9L256,256V18.4
				c-4.2,0-8.4,1.1-12.2,3.2L53.4,128.5z"/>
		</g>
		<g>
			<path class="st3" d="M256,256L44.4,374.8c2.1,3.5,5.2,6.6,8.9,8.7L177,452.9l66.8,37.5c7.6,4.2,16.9,4.2,24.5,0l66.8-37.5
				l123.6-69.4c3.8-2.1,6.8-5.1,8.9-8.7L256,256z"/>
		</g>
	</g>
	<g>
		<path class="st4" d="M385.7,206.3c-3.9,15.9-13.5,30.1-20,45.1c-9.6,22.4-6.7,45.1-10.1,68.7c-3,21.1-8.9,64.5-27.6,78.7
			c-16,12.2-29.8-1.2-32.6-17c-5.9-32.6,4.4-74.1-27.4-96.6c-3.6-2.5-7.8-3.8-12.1-3.8c-4.2,0-8.5,1.3-12.1,3.8
			c-31.8,22.5-21.6,64-27.4,96.6c-2.8,15.7-16.5,29.2-32.6,17c-18.7-14.2-24.5-57.6-27.6-78.7c-3.4-23.6-0.5-46.2-10.1-68.7
			c-6.4-15-16-29.2-20-45.1c-13.3-54,42-97.7,129.7-97.7S399,152.3,385.7,206.3z"/>
	</g>
	<g>
		<path class="st5" d="M169,300.7c-2.6,0-4.7-2-4.9-4.5c0,0,0,0,0,0c0-1.3,0.4-2.5,1.2-3.4c0.9-1,2.1-1.5,3.4-1.6
			c2.7-0.2,5,1.9,5.1,4.4c0,0,0,0,0,0c0.1,2.6-1.9,4.9-4.6,5C169.2,300.7,169.1,300.7,169,300.7L169,300.7z M167.6,281.7
			c-2.5,0-4.6-1.8-4.9-4.2c-1.3-11.6-3.7-21-7.4-29.8c-2.4-5.6-5.2-11.1-7.9-16.4l-0.4-0.7c-4.6-8.9-8.9-17.4-11.2-26.5
			c-1.1-4.6-1.7-9.2-1.7-13.6c0-12.1,4.2-23.4,12.5-33.5c10.1-12.3,25-22,44.3-28.8c18.7-6.6,41.3-10.1,65.2-10.1
			c2.7,0,4.9,2.1,4.9,4.8c0,2.6-2.2,4.8-4.9,4.8h-0.4c-45.1,0-83.9,13.5-101.4,35.3c-6.9,8.6-10.3,17.6-10.3,27.6
			c0,3.7,0.5,7.5,1.4,11.4c2,8.2,6.5,16.8,10.8,25.2l0.1,0.1c2.8,5.4,5.6,10.9,8.2,16.9c4.1,9.6,6.7,19.9,8.1,32.4v0
			c0.1,1.2-0.2,2.5-1.1,3.4c-0.8,1-2,1.6-3.3,1.8C167.9,281.7,167.7,281.7,167.6,281.7L167.6,281.7z"/>
	</g>
	<g>
		<g>
			<path class="st6" d="M352.9,133.1c9.5,14.5,12.8,31.4,8.3,49.4c-3.9,15.9-13.5,30.1-20,45.1c-9.6,22.4-6.7,45.1-10.1,68.7
				c-3,21.1-8.9,64.5-27.6,78.7c-2.9,2.2-5.8,3.6-8.5,4.3c0.1,0.9,0.3,1.7,0.4,2.5c2.8,15.7,16.5,29.2,32.6,17
				c18.7-14.2,24.5-57.6,27.6-78.7c3.4-23.6,0.5-46.2,10.1-68.7c6.4-15,16-29.2,20-45.1C392.9,177.1,380,151,352.9,133.1
				L352.9,133.1z"/>
		</g>
	</g>
	<g>
		<g>
			<path class="st7" d="M360.3,138.4c13.2,15.8,18.3,35.1,13.2,55.9c-3.9,15.9-13.5,30.1-20,45.1c-9.6,22.4-6.7,45.1-10.1,68.7
				c-3,21.1-8.9,64.5-27.6,78.7c-6.4,4.8-12.3,5.6-17.4,3.9c5.5,11.1,16.8,17.8,29.7,8c18.7-14.2,24.5-57.6,27.6-78.7
				c3.4-23.6,0.5-46.2,10.1-68.7c6.4-15,16-29.2,20-45.1C392.2,179.9,382.3,156,360.3,138.4z"/>
		</g>
	</g>
</g>
</svg>
