<?xml version="1.0" encoding="utf-8"?>
<!-- Generator: Adobe Illustrator 26.0.0, SVG Export Plug-In . SVG Version: 6.00 Build 0)  -->
<svg version="1.1" id="Capa_1" xmlns="http://www.w3.org/2000/svg" xmlns:xlink="http://www.w3.org/1999/xlink" x="0px" y="0px"
	 viewBox="0 0 491.5 491.5" style="enable-background:new 0 0 491.5 491.5;" xml:space="preserve">
<style type="text/css">
	.st0{fill:#334D5C;}
	.st1{opacity:0.1;enable-background:new    ;}
	.st2{fill:#3EA69B;}
	.st3{fill:#9B9942;}
	.st4{fill:#EBF0F3;}
	.st5{fill:#D5D6DB;}
	.st6{fill:#44C4A1;}
	.st7{fill:#E5E52C;}
</style>
<circle class="st0" cx="245.8" cy="245.8" r="245.8"/>
<path class="st1" d="M343.5,126.8c-17.2-17.6-41.4-11-41.4-11l-44.7,4.5c-7.7,0.8-15.5,0.8-23.2,0l-44.7-4.5
	c0,0-41.8-11.4-54.5,35.4c0,0-0.5,1.8-1.2,4.9c-10.5,4.2-18.7,12-23.6,21.4c-0.1,0-0.1-0.1-0.1-0.1l-1.1,2.4
	c-0.1,0.3-0.3,0.6-0.4,0.8c-1.1,2.5-1.9,5-2.5,7.6c-0.3,1-0.5,2.1-0.6,3.2c-0.3,1.3-0.4,2.7-0.5,4c-0.1,1.1-0.2,2.3-0.2,3.4
	c0,1.1,0.1,2.3,0.2,3.4c0.1,1.3,0.2,2.7,0.5,4.1c0.2,1,0.4,1.9,0.6,2.9c0.1,0.5,0.3,1,0.4,1.5c0.6,2.4,1.5,4.8,2.5,7.1
	c0.4,0.8,0.7,1.6,1.1,2.4l0.1-0.1c2.2,4.1,5,8,8.3,11.4l33.9,33.9c6.3,24.5,13.3,54.3,15.4,76.7c0,0,4,25.2,15.9,32.8l111.5,111.5
	c103.2-21.1,182.8-106.9,194.7-213.2l-146-146L343.5,126.8z"/>
<path class="st2" d="M138.9,154.4c-27.3,7.6-41.5,37.7-29.8,63.5c0.4,0.8,0.7,1.6,1.1,2.4c45.9-18.3,90.8-27.5,135.6-27.5v-53.3
	C210.2,139.6,174.6,144.5,138.9,154.4z"/>
<path class="st3" d="M352.6,154.4c-35.7-9.9-71.3-14.8-106.9-14.8v53.3c44.9,0,89.7,9.2,135.6,27.5l1.1-2.4
	C394.1,192.1,379.9,162,352.6,154.4z"/>
<path class="st4" d="M356.5,151.3c-12.7-46.8-54.4-35.4-54.4-35.4l-44.7,4.5c-7.7,0.8-15.5,0.8-23.2,0l-44.7-4.5
	c0,0-41.8-11.4-54.4,35.4c0,0-11.4,39,5.1,70.1c0,0,23.4,75.7,27.9,120.9c0,0,5,31.8,20.6,34.6c0,0,13.6-2.2,19.3-18.6l25.3-61.7
	c0,0,3-6.7,9-9.3c2.4-1,5-0.9,7.3,0.3c5.7,2.9,9,9,9,9l25.3,61.7c5.7,16.5,19.3,18.6,19.3,18.6c15.5-2.9,20.6-34.6,20.6-34.6
	c4.4-45.1,27.9-120.9,27.9-120.9C367.9,190.3,356.5,151.3,356.5,151.3z"/>
<g>
	<path class="st5" d="M239.5,238.3l-28.1-28.1c-26.4-2.7-52.9-8.7-79.7-17.8c1,9.5,3.4,19.6,8.3,29c0,0,4,13.1,9.1,31.6
		c21.6,5.4,43.2,9.1,64.8,10.9L239.5,238.3z"/>
	<path class="st5" d="M359.8,192.4c-38.3,13-76,19.5-113.7,19.6l26.3,26.3l-27,27c32.3,0,64.6-4.1,97-12.2
		c5.1-18.6,9.1-31.7,9.1-31.7C356.4,212,358.8,202,359.8,192.4z"/>
</g>
<path class="st6" d="M239.5,231.3l-28.1-28.1c-33.5-3.5-67.1-12-101.3-25.7l-1.1,2.4c-11.7,25.8,2.5,55.9,29.8,63.5
	c25,6.9,50,11.4,75,13.4L239.5,231.3z"/>
<path class="st7" d="M382.5,180c-0.4-0.8-0.7-1.6-1.1-2.4c-45.8,18.3-90.6,27.4-135.3,27.5l26.3,26.3l-27,27
	c35.7,0,71.4-4.9,107.2-14.8C379.9,235.9,394.1,205.8,382.5,180z"/>
</svg>
