<svg enable-background="new 0 0 512 512" viewBox="0 0 512 512" xmlns="http://www.w3.org/2000/svg"><g id="_x31_5_x2C__Analysis_x2C__risk_x2C__report_x2C__statistics_x2C__document"><g><path d="m381.51 100.338-68.51-33.37-21.86-57h-251.02c-16.64 0-30.12 13.479-30.12 30.12v431.76c0 16.64 13.48 30.12 30.12 30.12 329.59-.251 311.747.627 317.72-.7l-68.04-134.3 91.71-125.68z" fill="#e3e3e3"/><path d="m381.51 100.338h-90.37v-90.37z" fill="#cdcdcd"/><path d="m60.2 60.168h180.74v50.21h-180.74z" fill="#81e5ee"/><path d="m150.57 361.397h40.16v90.37h-40.16z" fill="#cd5668"/><path d="m60.2 311.188h40.17v140.58h-40.17z" fill="#cd5668"/><circle cx="371.47" cy="371.438" fill="#bae446" r="130.53"/><path d="m354.36 299.188c11.21 4.37 23.5 4.19 34.22 0 27.384-10.704 58.096 7.849 58.2 35.24.02 5.37-1.11 10.51-3.32 15.13-24.35 51.08-18.38 46.65-22.47 71.17-3.057 18.281-2.84 17.286-3.05 18.01-1.244 4.977-6.892 9.113-13.96 7.7-.1-.059-6.233-1.199-8.2-7.21l-12.98-39.59c-3.57-10.92-19.05-10.95-22.66 0l-12.98 39.59c-1.47 4.46-5.93 7.52-11 7.52-5.81 0-10.52-3.93-11.37-8.96l-2.84-17.06c-4.09-24.52 1.88-20.09-22.47-71.17-2.21-4.62-3.34-9.76-3.32-15.13.104-27.319 30.709-45.986 58.2-35.24z" fill="#f4efea"/><g><path d="m391.51 232.342v-131.784c.088-2.838-1.042-5.408-2.929-7.295-96.105-96.076-90.298-90.361-91.087-91.018-1.972-1.632-4.323-2.394-6.744-2.277h-250.628c-22.123 0-40.122 17.999-40.122 40.122v431.755c0 22.124 17.999 40.123 40.122 40.123 303.993-.304 312.358.678 318.397-.602 82.853 7.607 153.481-57.858 153.481-139.929 0-70.686-52.461-129.339-120.49-139.095zm-34.143-142.007h-56.225v-56.225c16.202 16.201 39.933 39.933 56.225 56.225zm-317.245 401.632c-11.096 0-20.122-9.027-20.122-20.123v-431.754c0-11.096 9.026-20.123 20.122-20.123h241.021v80.367c0 5.523 4.478 10 10 10h80.367v120.572c-25.994 0-50.789 7.079-72.362 20.081h-238.944c-5.522 0-10 4.477-10 10s4.478 10 10 10h213.094c-65.828 64.349-53.212 173.404 26.027 221.003-43.11-.03-120.3-.092-259.203-.023zm331.348 0c-66.461 0-120.531-54.07-120.531-120.531 0-66.46 54.07-120.53 120.531-120.53s120.53 54.07 120.53 120.531-54.069 120.53-120.53 120.53z"/><path d="m435.449 295.482c-14.816-10.079-33.695-12.178-50.514-5.611-8.669 3.393-18.237 3.391-26.939-.002-43.229-16.879-86.291 24.806-67.546 63.993 18.158 38.092 18.729 43.686 19.864 54.83 1.321 12.948 2.529 17.441 4.613 30.751 1.683 10.025 10.61 17.301 21.229 17.301 9.435 0 17.674-5.782 20.506-14.394l12.98-39.583c.504-1.535 1.725-1.266 1.832-1.327 1.389.001 1.698.95 1.818 1.318l12.985 39.598c2.829 8.605 11.069 14.387 20.505 14.387 10.618 0 19.546-7.276 21.23-17.313l2.841-17.058c4.121-24.73-1.83-19.286 21.629-68.499 9.174-19.182 3.855-44.181-17.033-58.391zm-1.009 49.761c-.002.003-.004.007-.005.011-18.897 39.642-20.245 47.049-21.709 61.409-1.235 12.137-1.867 13.091-4.435 29.452-.327.798-2.645.848-3.012.001l-12.979-39.58c-2.993-9.161-11.159-15.086-20.805-15.097-.009 0-.017 0-.024 0-9.64 0-17.813 5.916-20.83 15.085l-12.981 39.584c-.251.771-2.62.874-3.006.035-2.31-14.708-3.228-17.542-4.442-29.481-1.464-14.36-2.812-21.768-21.714-61.419-5.117-10.7-2.024-24.885 10.247-33.233 9.355-6.364 21.31-7.677 31.98-3.51 13.398 5.226 28.137 5.225 41.49-.001 10.667-4.166 22.623-2.848 31.984 3.52 12.329 8.386 15.343 22.56 10.241 33.224z"/><path d="m100.367 301.192h-40.163c-5.522 0-10 4.477-10 10v140.571c0 5.523 4.478 10 10 10h40.163c5.522 0 10-4.477 10-10v-140.571c0-5.523-4.477-10-10-10zm-10 140.571h-20.163v-120.571h20.163z"/><path d="m190.734 351.396h-40.163c-5.522 0-10 4.477-10 10v90.367c0 5.523 4.478 10 10 10h40.163c5.522 0 10-4.477 10-10v-90.367c0-5.523-4.477-10-10-10zm-10 90.367h-20.163v-70.367h20.163z"/><path d="m60.204 120.376h180.734c5.522 0 10-4.477 10-10v-50.204c0-5.523-4.478-10-10-10h-180.734c-5.522 0-10 4.477-10 10v50.204c0 5.523 4.478 10 10 10zm10-50.204h160.734v30.204h-160.734z"/><path d="m190.775 160.58c0 5.523 4.478 10 10 10h130.53c5.522 0 10-4.477 10-10s-4.478-10-10-10h-130.53c-5.522 0-10 4.477-10 10z"/><path d="m60.204 220.784h271.102c5.522 0 10-4.477 10-10s-4.478-10-10-10h-271.102c-5.522 0-10 4.477-10 10s4.478 10 10 10z"/></g></g></g><g id="Layer_1"/></svg>