<svg id="Layer_1" viewBox="0 0 512 512" xmlns="http://www.w3.org/2000/svg" data-name="Layer 1"><g fill-rule="evenodd"><path d="m380.72 250.361c70.271-62.05 12.727-188.56-85.266-150.548-33.449 12.983-57.147 12.983-90.624 0-97.966-38.012-155.537 88.5-85.237 150.548 2.721 33.732 4.251 104.769 12.1 133.738 17.717 65.453 71.348 114.492 83.991 16.555 3.26-25.172 1.587-76.961 34.469-80.306 32.882 3.345 31.209 55.134 34.441 80.306 12.642 97.937 66.274 48.9 83.991-16.555 7.852-28.969 9.382-100.006 12.132-133.738z" fill="#edeff7"/><path d="m407.734 327.973 23.924-13.833 25.059 43.399-23.953 13.833z" fill="#3f5163"/><path d="m420.632 367.658 38.948-22.478 40.11 69.477a22.551 22.551 0 0 1 -8.221 30.7 22.559 22.559 0 0 1 -30.727-8.22z" fill="#ffab02"/><path d="m401.271 142.134a103.958 103.958 0 1 1 -127.332 73.5 103.969 103.969 0 0 1 127.332-73.5z" fill="#69a7ff"/><path d="m394.3 168.156a77.035 77.035 0 1 1 -94.337 54.454 77.026 77.026 0 0 1 94.337-54.454z" fill="#edeff7"/><path d="m298.118 400.654c-3.259-25.172-1.587-76.961-34.469-80.306a27.634 27.634 0 0 0 -6.746 1.5c25.908 9.354 24.69 55.5 27.694 78.8 6.01 46.573 21.288 59.9 37.587 54.057-10.743-4.479-19.785-20.778-24.066-54.057z" fill="#dde0eb"/><path d="m145.189 384.1c-3.883-14.343-6.208-39.032-7.909-64.4l-12.614 12.585c1.616 20.722 3.8 39.855 7.03 51.817 11.707 43.2 39.062 79.257 59.925 70.612-17.944-6.463-37.134-36.284-46.432-70.612z" fill="#dde0eb"/><path d="m123.391 313.772 12.727-12.728c-1.1-19.388-1.984-37.757-3.033-50.683-59.527-52.554-27.326-151.37 43.455-157.261-79.993-6.463-120.16 101.48-56.947 157.266 1.275 15.732 2.267 39.543 3.8 63.411z" fill="#dde0eb"/><path d="m288 215.637a103.933 103.933 0 0 1 93.316-76.819 103.974 103.974 0 1 0 -6.916 207.723q3.528 0 7.058-.256c-2.324-.141-4.649-.4-6.973-.708a103.971 103.971 0 0 1 -86.485-129.94z" fill="#5f96e6"/><path d="m438.065 368.311-4.649-8.051-5.3 3.062-7.483 4.336 40.11 69.478a22.559 22.559 0 0 0 30.727 8.22 21.877 21.877 0 0 0 5.755-4.762 22.568 22.568 0 0 1 -23.7-10.828z" fill="#ed9e00"/></g><path d="m170.748 121.763a7 7 0 0 1 -5.79 8.031c-13.322 2.158-24.124 10.591-31.236 24.388-8.223 15.97-8.886 34.2-1.816 50a7 7 0 1 1 -12.783 5.716c-8.816-19.709-8.032-42.355 2.151-62.13 9.231-17.906 23.562-28.9 41.443-31.8a7 7 0 0 1 8.031 5.795zm-113.575 285.51h-50.173a7 7 0 1 0 0 14h50.173a7 7 0 1 0 0-14zm440.111 44.127a29.181 29.181 0 0 1 -14.669 3.959 29.8 29.8 0 0 1 -7.7-1.018 29.268 29.268 0 0 1 -17.929-13.725l-40.107-69.472a7 7 0 0 1 2.563-9.565l1.43-.825-7.761-13.463a110.757 110.757 0 0 1 -30.062 6.008c-1.558 14.338-3.331 25.051-5.394 32.625-10.238 37.821-34.61 77.057-60.137 77.059-.561 0-1.12-.02-1.682-.058-6.44-.438-15.712-3.741-23.314-16.988-5.841-10.179-10.065-25.119-12.555-44.4-.524-4.085-.919-8.781-1.337-13.753-2.55-30.334-6.486-57.764-26.158-60.4-19.654 2.632-23.6 30.033-26.171 60.334-.423 5-.823 9.72-1.354 13.82-2.49 19.28-6.713 34.22-12.554 44.4-7.6 13.247-16.874 16.55-23.313 16.988-.561.038-1.123.058-1.682.058-25.529 0-49.9-39.236-60.14-77.07-3.047-11.24-5.158-28.363-6.753-47.144l-24.338 24.33a7 7 0 0 1 -4.95 2.05h-84.217a7 7 0 1 1 0-14h81.317l30.8-30.789c-.808-12-1.47-24.117-2.084-35.359-.633-11.594-1.234-22.607-1.885-31.333-38.9-36.252-37.941-90.207-16.507-125.434 10.842-17.816 26.283-30.761 44.653-37.435 20.266-7.363 43.222-6.505 66.388 2.484 12.906 5.009 24.119 7.994 35.006 8.961l37.276-50.392a7.007 7.007 0 0 1 5.629-2.838h208.086a7 7 0 1 1 0 14h-204.555l-28.866 39.023c10.255-1.142 20.872-4.058 32.979-8.758 25.721-9.983 50.846-9.953 72.657.089 18.5 8.516 33.7 23.956 43.134 43.665a110.882 110.882 0 0 1 38.136 189.438l7.785 13.461 1.442-.832a7 7 0 0 1 9.563 2.564l40.109 69.475a29.528 29.528 0 0 1 -10.779 40.26zm-133.141-69.142c1.808-6.637 3.4-16.181 4.827-29.023a110.958 110.958 0 1 1 23.53-220.513c-17.531-26.145-50.356-42.622-92.2-26.385-17.776 6.9-33.228 10.274-48.726 10.141l-12.41 16.777a7 7 0 0 1 -11.258-8.328l7.3-9.87a152.754 152.754 0 0 1 -30.595-8.72c-45.484-17.646-78.387 3.5-94.011 29.176-18.786 30.881-19.343 78.441 15.949 109.587a7 7 0 0 1 2.344 4.687c.749 9.279 1.416 21.5 2.123 34.447.4 7.362.825 15.107 1.3 22.935l23.458-23.449a7 7 0 0 1 9.9 9.9l-32.141 32.129c1.63 22.6 3.832 43.9 7.248 56.5 10.771 39.792 32.995 66.725 46.67 66.725.231 0 .458-.007.684-.023 10.473-.713 19.046-19.111 22.932-49.213.492-3.8.878-8.366 1.289-13.206 2.354-27.779 5.911-69.758 39.414-73.166a7.148 7.148 0 0 1 1.418 0c33.53 3.411 37.064 45.432 39.4 73.238.4 4.815.787 9.362 1.271 13.139 3.886 30.1 12.459 48.5 22.932 49.208.225.016.453.023.684.023 13.673.007 35.897-26.923 46.668-66.716zm61.012-55.752a96.956 96.956 0 0 0 -20.975-176.936l-.174-.049q-1.11-.327-2.233-.629a96.953 96.953 0 1 0 11.491 183.447q.31-.145.628-.258a98.474 98.474 0 0 0 11.263-5.575zm.954 15.3 6.891 11.952 11.82-6.822-6.911-11.949a111.809 111.809 0 0 1 -11.8 6.813zm69.826 76.341-36.607-63.41-26.82 15.478 36.608 63.411a15.483 15.483 0 0 0 26.819-15.479zm-438.762-38.936h-50.173a7 7 0 0 0 0 14h50.173a7 7 0 1 0 0-14zm438.506-302.134h-50.172a7 7 0 1 0 0 14h50.172a7 7 0 1 0 0-14zm0 28.061h-50.172a7 7 0 0 0 0 14h50.172a7 7 0 1 0 0-14zm-37.824 159.156a84.055 84.055 0 1 1 -59.435-102.907 84.247 84.247 0 0 1 59.435 102.907zm-20.53-56.764a69.541 69.541 0 0 0 -42.525-32.616 70.433 70.433 0 0 0 -18.265-2.423 70.07 70.07 0 1 0 60.793 35.04z"/></svg>