<?xml version="1.0" encoding="utf-8"?>
<!-- Generator: Adobe Illustrator 26.0.0, SVG Export Plug-In . SVG Version: 6.00 Build 0)  -->
<svg version="1.1" id="Layer_5" xmlns:svgjs="http://svgjs.dev/svgjs"
	 xmlns="http://www.w3.org/2000/svg" xmlns:xlink="http://www.w3.org/1999/xlink" x="0px" y="0px" viewBox="0 0 300 300"
	 style="enable-background:new 0 0 300 300;" xml:space="preserve">
<style type="text/css">
	.st0{fill:#223A30;stroke:#FFFFFF;stroke-width:5;stroke-miterlimit:10;}
	
		.st1{clip-path:url(#SVGID_00000011007844786194013730000004498279643573233315_);fill:#25B681;stroke:#FFFFFF;stroke-width:5;stroke-miterlimit:10;}
	.st2{fill:#FFFFFF;}
</style>
<rect x="399" y="119.8" class="st0" width="461.4" height="350.1"/>
<g>
	<defs>
		<path id="SVGID_1_" d="M280.3,294.9H19.7c-8,0-14.6-6.5-14.6-14.6V19.7c0-8,6.5-14.6,14.6-14.6h260.6c8,0,14.6,6.5,14.6,14.6
			v260.6C294.9,288.3,288.3,294.9,280.3,294.9z"/>
	</defs>
	<clipPath id="SVGID_00000171688216052229620080000012026190038800294811_">
		<use xlink:href="#SVGID_1_"  style="overflow:visible;"/>
	</clipPath>
	
		<rect x="-3.6" y="-4" style="clip-path:url(#SVGID_00000171688216052229620080000012026190038800294811_);fill:#25B681;stroke:#FFFFFF;stroke-width:5;stroke-miterlimit:10;" width="307.5" height="307.5"/>
	<use xlink:href="#SVGID_1_"  style="overflow:visible;fill:none;stroke:#FFFFFF;stroke-width:5;stroke-miterlimit:10;"/>
</g>
<g transform="matrix(1.01,0,0,1.01,-2.560247988700894,-2.5602403259277366)">
	<path class="st2" d="M273.9,49.4h-21.2V28.2c0-5.2-4.2-9.4-9.4-9.4h-35.9c-5.2,0-9.4,4.2-9.4,9.4v21.2h-21.2
		c-5.2,0-9.4,4.2-9.4,9.4v3c-26.4-8.5-61.2-6.8-85.2,5.4c-29.4-2.7-57.4,17.1-60.7,44.1c-6.2,31.9-0.7,53.8,18.9,75.6
		c5.2,5.8,6.9,17.4,8.7,29.6c4,33.3,14.2,62.2,53.8,66.7c8.5,1.2,16.9-5.4,17.6-13.9l6.7-60.8c0.2-1.6,1.5-2.8,3.1-2.8h2.5
		c1.6,0,3,1.2,3.1,2.8l6.7,60.8c0.8,8.5,9.2,15.1,17.6,13.9c39.6-4.5,49.8-33.3,53.8-66.7c1.8-12.2,3.5-23.8,8.7-29.6
		c14.6-16.2,21.3-32.4,21.4-52.1c4.9-0.4,8.7-4.4,8.7-9.4v-21.2h21.2c5.2,0,9.4-4.2,9.4-9.4V58.9C283.3,53.7,279.1,49.4,273.9,49.4
		L273.9,49.4z M167.2,68.5v1.4c-5,1.6-9.6,3.8-13.9,6.6c-12-5.3-31.8-5.3-43.8,0c-4.9-3.2-10.4-5.7-16.2-7.3
		C115.5,61,144.6,60.7,167.2,68.5z M167.2,76.6v6.8c-2.3-1.2-4.6-2.5-7-3.7C162.4,78.5,164.8,77.4,167.2,76.6z M217.8,182.7
		c-20.1,25.7,2,86.2-58.6,94.2c-2.5,0.3-5-0.4-7-2c-2-1.6-3.3-3.8-3.5-6.4l-6.7-60.8c-0.5-4.8-4.6-8.4-9.4-8.4h-2.5
		c-4.8,0-8.9,3.6-9.4,8.4l-6.7,60.8c-0.3,2.5-1.5,4.8-3.5,6.4c-2,1.6-4.5,2.3-7,2c-40-5-44.4-34.9-48.3-61.3
		c-2-13.8-3.8-25.7-10.3-32.9c-18.4-20.4-23.3-40.1-17.4-70.3c3.9-32.6,45.9-49.2,75.1-32.8c-9.3,4.8-16.2,9.7-28.3,9.7
		c-1.7,0-3.1,1.4-3.1,3.1c0,1.7,1.4,3.1,3.1,3.1c11.7,0,19.5-4.2,26.9-8.2c19-11.6,41.5-11.6,60.4,0c1.8,1,3.7,2,5.6,2.9v4.3
		c0,5.2,4.2,9.4,9.4,9.4h21.2v21.2c0,5.2,4.2,9.4,9.4,9.4h30.3C237.5,153.1,231.5,167.6,217.8,182.7L217.8,182.7z"/>
</g>
</svg>
