<svg id="Layer_1" enable-background="new 0 0 512 512" viewBox="0 0 512 512" xmlns="http://www.w3.org/2000/svg"><path d="m431.362 80.638c-46.841-46.841-109.119-72.638-175.362-72.638s-128.521 25.797-175.362 72.638-72.638 109.119-72.638 175.362c0 39.057 8.822 76.438 26.221 111.103 16.588 33.049 40.861 62.509 70.197 85.194 1.456 1.127 3.179 1.672 4.888 1.672 2.392 0 4.758-1.067 6.334-3.106 2.703-3.495 2.061-8.52-1.435-11.222-55.207-42.695-87.726-106.352-90.057-175.641l202.898-.001c3.512 12.693 15.158 22.043 28.953 22.043s25.441-9.35 28.953-22.043l202.897.001c-2.284 67.259-33.284 129.705-85.874 172.33-3.433 2.782-3.96 7.819-1.178 11.252 2.781 3.433 7.82 3.959 11.252 1.178 58.436-47.364 91.951-117.622 91.951-192.76 0-66.243-25.797-128.521-72.638-175.362zm56.485 167.362h-84.533c-1.13-21.037-6.686-40.916-15.753-58.722l73.195-42.259c16.193 30.299 25.851 64.588 27.091 100.981zm-35.115-114.823-73.198 42.261c-11.201-17.118-25.857-31.775-42.975-42.976l42.26-73.196c29.872 18.716 55.196 44.039 73.913 73.911zm-263.453-8.741-42.258-73.193c30.299-16.191 64.587-25.849 100.979-27.089v84.53c-21.037 1.128-40.916 6.685-58.721 15.752zm74.72-100.283c36.391 1.24 70.68 10.897 100.979 27.089l-42.259 73.194c-17.806-9.067-37.684-14.623-58.72-15.753zm-130.82 35.114 42.26 73.196c-17.117 11.201-31.774 25.858-42.975 42.976l-73.197-42.26c18.717-29.873 44.04-55.196 73.912-73.912zm-8.741 130.011c-9.067 17.806-14.623 37.685-15.753 58.721h-84.532c1.24-36.392 10.898-70.681 27.09-100.98zm102.609 58.721h-102.331c4.149-68.817 61.442-123.536 131.283-123.536 69.842 0 127.134 54.719 131.284 123.536h-102.33c-.665-2.404-1.622-4.686-2.83-6.809l32.815-32.815c3.124-3.125 3.124-8.189 0-11.314-3.125-3.123-8.189-3.123-11.314 0l-32.815 32.815c-4.375-2.49-9.426-3.919-14.809-3.919-13.795-.001-25.441 9.349-28.953 22.042zm28.953 22.043c-7.743 0-14.043-6.3-14.043-14.043s6.3-14.043 14.043-14.043 14.043 6.3 14.043 14.043-6.3 14.043-14.043 14.043zm-15.289 104.05h-35.688c-4.418 0-8 3.582-8 8v113.908c0 4.418 3.582 8 8 8h35.688c4.418 0 8-3.582 8-8v-113.908c0-4.418-3.582-8-8-8zm-8 113.908h-19.688v-97.908h19.688zm74.267-99.034h-35.688c-4.418 0-8 3.582-8 8v99.034c0 4.418 3.582 8 8 8h35.688c4.418 0 8-3.582 8-8v-99.034c0-4.418-3.582-8-8-8zm-8 99.034h-19.688v-83.034h19.688zm74.264-160.722h-35.688c-4.418 0-8 3.582-8 8v160.721c0 4.418 3.582 8 8 8h35.688c4.418 0 8-3.582 8-8v-160.721c0-4.418-3.582-8-8-8zm-8 160.721h-19.688v-144.721h19.688zm-190.797-69.723h-35.688c-4.418 0-8 3.582-8 8v69.723c0 4.418 3.582 8 8 8h35.688c4.418 0 8-3.582 8-8v-69.723c0-4.418-3.582-8-8-8zm-8 69.723h-19.688v-53.723h19.688zm120.283-150.278 47.382-47.787c-4.25.143-7.878-3.025-8.252-7.285-.386-4.401 2.869-8.282 7.271-8.669l21.571-1.892c2.391-.213 4.747.664 6.423 2.381 1.676 1.716 2.493 4.094 2.227 6.478l-2.406 21.521c-.457 4.089-3.92 7.112-7.94 7.112-.297 0-.597-.017-.898-.051-4.06-.454-7.061-3.871-7.104-7.853l-50.377 50.807c-2.127 2.144-5.279 2.909-8.149 1.977l-62.038-20.129-62.918 48.992c-1.461 1.137-3.191 1.688-4.909 1.688-2.383 0-4.74-1.06-6.318-3.085-2.714-3.486-2.089-8.513 1.397-11.228l66.266-51.599c2.095-1.63 4.86-2.116 7.384-1.297z"/></svg>