<svg height="512" viewBox="0 0 48 48" width="512" xmlns="http://www.w3.org/2000/svg"><g id="Line"><path d="m24 2c-12.131 0-22 9.869-22 22 1.208 29.186 42.796 29.178 44 0 0-12.131-9.869-22-22-22zm0 42c-11.028 0-20-8.972-20-20 1.099-26.533 38.905-26.525 40 0 0 11.028-8.972 20-20 20z"/><path d="m33.615 13.077-24 10c-.861.328-.781 1.674.122 1.888 0 0 10.449 2.85 10.449 2.85l2.85 10.449c.213.896 1.559.99 1.888.122 0 0 10-24 10-24 .357-.786-.52-1.673-1.309-1.309zm-9.417 21.848-2.233-8.188c-.093-.341-.36-.608-.702-.702l-8.188-2.233 19.068-7.945z"/></g></svg>