<svg viewBox="0 0 64 64" xmlns="http://www.w3.org/2000/svg" width="300" height="300" version="1.1" xmlns:xlink="http://www.w3.org/1999/xlink" xmlns:svgjs="http://svgjs.dev/svgjs"><g width="100%" height="100%" transform="matrix(1,0,0,1,0,0)"><g id="Layer_31" data-name="Layer 31"><path d="m45.97089 37.55377a4.65934 4.65934 0 0 0 .92559-1.11529l.08887-.1543a3.32438 3.32438 0 0 0 -1.21484-4.53518l-2.333-1.34668a3.31891 3.31891 0 0 0 -4.45684 1.10688c-.26556-.11737-.52655-.25165-.79413-.35248-.35644-.53906-1.33593-2.41455-2.874-5.67578a5.12173 5.12173 0 0 0 -4.60354-2.91112h-.98291l-.21533-1.37158c3.165-.1709 6.16992-.78271 6.84375-5.54931a3.16908 3.16908 0 0 0 -.25781-1.46485 2.9194 2.9194 0 0 1 -.18164-.65234l.0293-.70264a16.97559 16.97559 0 0 0 -.23633-4.479c-.00342-.01666-.015-.02881-.01917-.04511a2.02927 2.02927 0 0 0 -.15271-1.22833l-.3125-.67187a.82634.82634 0 0 0 -.04687-.08985 9.81546 9.81546 0 0 0 -17.60352 1.4917c-.00683.019-.0332.09815-.03808.11719a16.35842 16.35842 0 0 0 -.56446 3.44873l-.82326 15.04544a.99945.99945 0 0 0 1.60254.851l.418-.31738a8.86243 8.86243 0 0 0 -1.25882 4.54838 1.01844 1.01844 0 0 0 .00879.1333l1.002 7.4624a19.23848 19.23848 0 0 1 -1.11133 9.4541 17.53724 17.53724 0 0 0 -.44824 11.23633l.40528 1.36621a1.88436 1.88436 0 0 0 1.79394 1.33789h20.97749a1.87423 1.87423 0 0 0 1.87207-1.87207v-1.09863a1.09252 1.09252 0 0 1 .42969-.88867 15.80514 15.80514 0 0 0 6.52051-12.751 15.64488 15.64488 0 0 0 -2.38849-8.32609zm-5.33612-4.93609a1.31988 1.31988 0 0 1 1.80272-.48291l2.333 1.34668a1.32149 1.32149 0 0 1 .48144 1.80468l-.08886.1543a2.66629 2.66629 0 1 1 -4.61719-2.668zm-12.32228-13.37012a1.00143 1.00143 0 0 0 -.95116 1.1543l.33984 2.168h-1.8623a8.8884 8.8884 0 0 0 -2.72608.42914 9.886 9.886 0 0 0 2.77686-5.309.954.954 0 0 0 .01562-.1748l.001-.40625a3.41126 3.41126 0 0 0 -1.25586-3.12549 1.44024 1.44024 0 0 1 -.10742-1.62891.71443.71443 0 0 1 .6543-.37353h.002a1.38036 1.38036 0 0 1 1.18945.688v.00048l.74512 1.28955a1.00469 1.00469 0 0 0 1.24121.42676 24.68288 24.68288 0 0 0 5.58942-3.85547c.03894.77515.01513 1.50153-.01715 2.207l-.03028.7295a3.82759 3.82759 0 0 0 .291 1.377 4.50776 4.50776 0 0 1 .166.52637c-.49613 3.51407-2.31742 3.73721-6.06157 3.87735zm.4112 17.368a16.15468 16.15468 0 0 0 9.85151 6.941 4.85623 4.85623 0 0 0 1.48632.09473 3.12945 3.12945 0 0 1 2.24121.86621l.2754.26758a1.43218 1.43218 0 0 1 .39062 1.36816l-.2627 1.04492a1.41837 1.41837 0 0 1 -1.19531 1.06836l-.63379.083a4.16354 4.16354 0 0 1 -3.02246-.77441 1.006 1.006 0 0 0 -.3291-.15821 20.25118 20.25118 0 0 1 -12.47052-9.156zm-6.3858.67249a26.34917 26.34917 0 0 1 -2.0791-4.70655l-.40234-1.208a3.99948 3.99948 0 1 1 7.59277-2.51661l.40137 1.2168a19.02185 19.02185 0 0 0 1.82812 3.92236zm-3.37109-25.80563a14.402 14.402 0 0 1 .48437-2.99023 7.81607 7.81607 0 0 1 13.97461-1.20752l.29.688-.57617.63623a33.29069 33.29069 0 0 1 -4.75293 3.51953l-.26563-.45947a3.38776 3.38776 0 0 0 -2.918-1.688h-.00586a2.70942 2.70942 0 0 0 -2.46973 1.53369 3.35148 3.35148 0 0 0 .48254 3.85644c.708.73487.80859.9419.71192 1.47754a1.04759 1.04759 0 0 0 -.01563.17481l-.001.39746a8.63346 8.63346 0 0 1 -3.66992 5.45019l-1.97363 1.49805zm21.6982 45.5293a3.01516 3.01516 0 0 0 -.92621 1.10235c-.1402-.01361-.2796-.02349-.42047-.03985a.38117.38117 0 0 0 -.416.33008.37677.37677 0 0 0 .33008.416c.08545.00965.17023.01514.25562.024a3.16589 3.16589 0 0 0 -.07886.67523v.9707h-20.75389l-.377-1.27246a15.52625 15.52625 0 0 1 .39648-9.94922 21.24411 21.24411 0 0 0 1.22759-10.43945l-.34814-2.59161a28.2961 28.2961 0 0 0 1.521 2.8504.99856.99856 0 0 0 1.26269.3916l.87482-.39233a22.13266 22.13266 0 0 0 13.61639 10.21264 6.171 6.171 0 0 0 4.3086 1.0322l.63476-.083a3.40587 3.40587 0 0 0 2.874-2.56543l.2627-1.04492a3.44025 3.44025 0 0 0 -.93652-3.28711l-.27539-.26758a5.05626 5.05626 0 0 0 -3.70215-1.43066 4.41448 4.41448 0 0 1 -.89746-.02637 14.2926 14.2926 0 0 1 -8.52515-5.84051l.99585-.4466a.99965.99965 0 0 0 .4082-1.4873 17.02377 17.02377 0 0 1 -2.22851-4.40869l-.40039-1.21436a5.9835 5.9835 0 0 0 -3.42456-3.65967h4.78592a3.11147 3.11147 0 0 1 2.7959 1.76709c2.98047 6.3208 3.30567 6.4419 3.7666 6.61426.33246.1192.6612.25684.98658.403a4.65956 4.65956 0 0 0 4.58862 5.4212 4.69657 4.69657 0 0 0 1.21484-.16016c.06012-.01617.11328-.04644.17243-.06481a13.64526 13.64526 0 0 1 2.12543 7.32946 13.80013 13.80013 0 0 1 -5.6944 11.13188zm-7.93359-.15723a.37437.37437 0 0 1 -.34766.23535.37037.37037 0 0 1 -.13965-.02734c-.57226-.22949-1.12891-.47656-1.65332-.7334a.37517.37517 0 0 1 .33008-.67383c.50781.249 1.04785.48828 1.60254.71192a.3742.3742 0 0 1 .20805.4873zm-3.98922-1.96679a.37564.37564 0 0 1 -.51856.1123c-.50976-.32812-1.00879-.67969-1.48144-1.04492a.37523.37523 0 1 1 .459-.59375c.45508.35254.93653.6914 1.42871 1.00781a.37532.37532 0 0 1 .11229.51856zm8.26269 3.2041a.37519.37519 0 0 1 -.36621.2959.3636.3636 0 0 1 -.0791-.00879c-.58594-.126-1.17187-.27344-1.752-.43946a.37492.37492 0 1 1 .207-.7207q.84667.24316 1.70312.42773a.37424.37424 0 0 1 .28719.44532zm-11.75879-6.47754a.375.375 0 0 1 -.541.51953q-.35449-.36768-.6875-.75391a.37529.37529 0 0 1 .56836-.49023q.31932.37208.66014.72461z" fill="#ffffff" fill-opacity="1" data-original-color="#000000ff" stroke="none" stroke-opacity="1"/></g></g></svg>