<svg clip-rule="evenodd" fill-rule="evenodd" height="300" image-rendering="optimizeQuality" shape-rendering="geometricPrecision" text-rendering="geometricPrecision" viewBox="0 0 1707 1707" width="300" xmlns="http://www.w3.org/2000/svg" xmlns:xlink="http://www.w3.org/1999/xlink" version="1.1" xmlns:svgjs="http://svgjs.dev/svgjs"><g width="100%" height="100%" transform="matrix(1,0,0,1,0,0)"><g id="Layer_x0020_1"><path d="m929 1255c-48 0-65-69-65-87v-133c0-93-83-97-83 0v137c-7 46-39 108-97 73-44-27-98-106-109-190-16-110 12-85-44-195-117-228 54-383 292-271 33-15 65-26 96-32 72-146 295-97 295 67 0 51-25 96-63 124-1 37-28 95-36 112-56 110-29 85-44 195-12 86-82 200-142 200zm181-611h-31c0 21 5 51-20 51s-20-30-20-51h-31c-26 0-26-40 0-40h31v-30c0-27 40-27 40 0v30h31c26 0 26 40 0 40zm-257 883c-1 0-3 0-5-1-366-94-575-459-605-1055 0-10 7-19 16-21 209-45 389-137 584-250 15-8 32 7 54 20 175 104 369 191 551 230 9 3 16 11 15 21-29 596-239 961-605 1055-1 1-3 1-5 1zm-569-1041c32 572 224 908 569 1000 346-92 538-428 569-1000-196-46-382-135-569-245-184 108-376 201-569 245zm569 1221c-1 0-2-1-4-1-619-125-784-783-784-1389 0-11 8-20 19-20 340-9 729-297 769-297s430 288 770 297c11 0 19 9 19 20 0 606-165 1264-785 1389-1 0-2 1-4 1zm-748-1371c3 541 137 1202 748 1330 612-128 746-789 749-1330-265-15-563-188-693-263-23-14-46-27-56-32-9 5-32 18-56 32-129 75-427 248-692 263zm801 265c-54 14-76 37-92 28-204-101-349 14-247 213 60 119 32 99 47 208 13 89 85 174 106 164 9-4 18-24 22-46v-133c0-150 162-146 162-1v132c1 13 10 60 37 45 30-19 80-87 90-161 16-110-12-89 48-208 15-28 22-52 26-70-14 4-30 7-46 7-102 0-166-91-153-178zm212 121c4-4 56-29 56-98 0-63-52-114-115-114-101 0-153 123-81 195 41 41 98 42 140 17zm-523 54c-50 0-8-142 102-142 26 0 26 40 0 40-45 0-82 37-82 82 0 11-9 20-20 20z" fill="url(#SvgjsRadialGradient1045)" data-original-color="id0" stroke="none" stroke-opacity="1"/></g></g><defs><radialGradient id="SvgjsRadialGradient1045"><stop stop-opacity="1" stop-color="#6b7280" offset="0.5"/><stop stop-opacity="1" stop-color="#6b7280" offset="1"/></radialGradient></defs></svg>