<svg enable-background="new 0 0 64 64" viewBox="0 0 64 64" xmlns="http://www.w3.org/2000/svg"><g id="Layer_1"/><g id="Pencil"/><g id="School_bag"><g><path d="m61 38h-6v-7c0-1.092-.082-2.165-.23-3.217.014-.035.036-.063.046-.1 2.704-10.051.271-23.308.167-23.867-.032-.169-.107-.328-.218-.459-.328-.39-.696-.8-1.161-1.153-2.956-2.243-6.798-2.218-8.23-2.204-.145.001-.262.002-.346 0-.382-.008-.725.191-.905.521l-4.745 8.7c-.127-.043-.252-.088-.378-.128v-3.093c0-2.206-1.794-4-4-4h-6c-2.206 0-4 1.794-4 4v3.093c-.126.04-.251.085-.377.128l-4.745-8.7c-.18-.33-.501-.53-.905-.521-.085.001-.202 0-.346 0-1.441-.015-5.274-.04-8.231 2.203-.464.353-.832.763-1.16 1.153-.111.132-.186.29-.218.459-.106.56-2.539 13.817.166 23.868.01.037.032.066.046.1-.148 1.052-.23 2.125-.23 3.217v7h-6c-1.103 0-2 .897-2 2v3c0 1.103.897 2 2 2v12c0 3.309 2.691 6 6 6h3.413c1.051.631 2.275 1 3.587 1h32c1.317 0 2.546-.372 3.6-1.008.013.001.025.008.038.008h3.362c3.309 0 6-2.691 6-6v-12c1.103 0 2-.897 2-2v-3c0-1.103-.897-2-2-2zm-11.774-22.216 4.248-8.497c.458 3.68.987 10.061.18 15.968-.995-2.776-2.511-5.304-4.428-7.471zm-3.632-13.785c1.393.004 4.51.06 6.801 1.797.145.11.278.236.406.365l-5.05 10.101c-1.893-1.782-4.085-3.247-6.494-4.311zm-18.594 4.001c0-1.103.897-2 2-2h6c1.103 0 2 .897 2 2v2.554c-1.611-.359-3.283-.554-5-.554s-3.389.195-5 .554zm-15.396-2.203c2.291-1.738 5.412-1.8 6.801-1.798l4.338 7.953c-2.409 1.064-4.602 2.529-6.494 4.311l-5.05-10.101c.127-.13.261-.255.405-.365zm-1.079 3.49 4.248 8.497c-1.917 2.167-3.432 4.695-4.428 7.471-.806-5.907-.278-12.288.18-15.968zm-7.525 32.713h6v3h-6zm2 17v-12h4v12c0 1.487.47 2.865 1.264 4h-1.264c-2.206 0-4-1.794-4-4zm11 5c-2.757 0-5-2.243-5-5v-26c0-5.485 2.131-10.47 5.587-14.214.106-.079.191-.172.256-.282 3.826-3.999 9.199-6.504 15.157-6.504s11.331 2.505 15.157 6.504c.065.11.15.202.256.282 3.456 3.744 5.587 8.729 5.587 14.214v26c0 2.757-2.243 5-5 5zm43-5c0 2.206-1.794 4-4 4h-1.264c.794-1.135 1.264-2.513 1.264-4v-12h4zm2-14h-6v-3h6z"/><path d="m46 34h-28c-1.654 0-3 1.346-3 3v18c0 1.654 1.346 3 3 3h28c1.654 0 3-1.346 3-3v-18c0-1.654-1.346-3-3-3zm-29 3c0-.551.449-1 1-1h28c.551 0 1 .449 1 1v4c0 3.86-3.14 7-7 7h-4v-2c0-1.654-1.346-3-3-3h-2c-1.654 0-3 1.346-3 3v2h-4c-3.86 0-7-3.14-7-7zm17 9v4c0 .551-.449 1-1 1h-2c-.551 0-1-.449-1-1v-4c0-.551.449-1 1-1h2c.551 0 1 .449 1 1zm13 9c0 .551-.449 1-1 1h-28c-.551 0-1-.449-1-1v-8.356c1.651 2.044 4.174 3.356 7 3.356h4c0 1.654 1.346 3 3 3h2c1.654 0 3-1.346 3-3h4c2.826 0 5.349-1.312 7-3.356z"/><path d="m18 30h28c.552 0 1-.448 1-1 0-8.271-6.729-15-15-15s-15 6.729-15 15c0 .552.448 1 1 1zm14-14c6.832 0 12.45 5.297 12.962 12h-25.924c.512-6.703 6.13-12 12.962-12z"/><path d="m42.081 24.599c-1.756-4.009-5.713-6.599-10.081-6.599s-8.325 2.59-10.081 6.599c-.222.506.009 1.096.515 1.317.506.22 1.095-.009 1.317-.515 1.437-3.281 4.675-5.401 8.249-5.401s6.812 2.12 8.249 5.401c.165.375.531.599.917.599.134 0 .27-.027.401-.084.505-.222.736-.812.514-1.317z"/></g></g></svg>