<svg fill="none" height="512" viewBox="0 0 24 24" width="512" xmlns="http://www.w3.org/2000/svg"><g fill="rgb(0,0,0)"><path d="m13.7474 12.1644c.3669-.4128.3297-1.0449-.083-1.4118-.4128-.3669-1.0449-.3297-1.4118.083l-3.29542 3.7074-1.25007-1.2501c-.39053-.3905-1.02369-.3905-1.41422 0-.39052.3905-.39052 1.0237 0 1.4142l2 2c.19475.1948.46119.3006.73648.2925.2753-.0081.53507-.1294.71804-.3352z"/><path clip-rule="evenodd" d="m18 19v-1h1c1.6569 0 3-1.3431 3-3v-10c0-1.65685-1.3431-3-3-3h-10c-1.65685 0-3 1.34315-3 3v1h-1c-1.65685 0-3 1.34315-3 3v10c0 1.6569 1.34315 3 3 3h10c1.6569 0 3-1.3431 3-3zm-10-14v1h7c1.6569 0 3 1.34315 3 3v7h1c.5523 0 1-.4477 1-1v-10c0-.55228-.4477-1-1-1h-10c-.55228 0-1 .44771-1 1zm-3 15c-.55228 0-1-.4477-1-1v-10c0-.55229.44772-1 1-1h10c.5523 0 1 .44772 1 1v10c0 .5523-.4477 1-1 1z" fill-rule="evenodd"/></g></svg>
