<svg clip-rule="evenodd" fill-rule="evenodd" height="300" image-rendering="optimizeQuality" shape-rendering="geometricPrecision" text-rendering="geometricPrecision" viewBox="0 0 4335 4335" width="300" xmlns="http://www.w3.org/2000/svg" version="1.1" xmlns:xlink="http://www.w3.org/1999/xlink" xmlns:svgjs="http://svgjs.dev/svgjs"><g width="100%" height="100%" transform="matrix(1,0,0,1,0,0)"><g id="Layer_x0020_1"><path d="m2592 1821h-315c-42 0-80-15-110-41-29 26-68 41-109 41h-315c-79 0-59-113-59-169 0-94 76-169 169-169h629c93 0 169 75 169 169 0 56 20 169-59 169zm1148 2514h-3145c-33 0-59-27-59-60v-962c0-564 458-1023 1022-1023h165v-71c-262-145-449-413-480-724-152-17-272-148-272-305 0-58 16-112 43-159v-430c0-163 133-296 296-296h171c367-405 1005-405 1373 0h171c163 0 296 133 296 296v430c27 46 42 101 42 159 0 157-119 288-272 305-31 311-218 579-479 724v71h165c564 0 1022 459 1022 1023v962c0 33-26 60-59 60zm-3086-119h638v-571c0-76 119-76 119 0v571h1513v-571c0-76 119-76 119 0v571h638v-903c0-499-406-904-904-904h-165v204c0 245-200 444-445 444-220 0-403-160-438-371-12-70-6-205-6-277h-165c-498 0-904 405-904 904zm1188-1941c0 135-7 270 6 404 15 142 178 260 319 260 180 0 326-146 326-326v-338c-208 79-444 79-651 0zm-598-1440c15-151 66-291 145-412h-79c-98 0-178 80-178 178v311c34-19 71-33 109-39zm1702-412c86 132 136 286 148 450 39 7 76 20 108 39v-311c0-98-79-178-177-178zm-1647 956c33 0 59 27 59 59 16 428 379 778 809 778 431 0 794-350 810-780 1-47 40-57 79-57 252 0 250-391-20-391h-236c-64 333-546 333-610 0h-45c-65 333-546 333-611 0h-242c-248 0-290 391 7 391zm1676-510c-25-415-386-750-808-750-426 0-776 335-807 750h174c65-333 547-333 611 0h45c64-333 546-333 611 0zm-1135-133c-106 0-193 86-193 193 0 106 87 192 193 192 107 0 192-87 192-194-1-105-87-191-192-191zm848 194c-5-258-385-254-385 0 1 106 87 191 192 191 106 0 192-86 193-191zm-474 458c-50 0-153 19-153-59 0-77 103-59 153-59 77 0 77 118 0 118zm-412 314c307 0 306 27 306-101-307 0-306-26-306 101zm425-101c0 128-1 101 305 101 0-127 2-101-305-101z" fill="#ffffff" fill-opacity="1" data-original-color="#000000ff" stroke="none" stroke-opacity="1"/></g></g></svg>