<svg id="Layer_1" enable-background="new 0 0 512 512" viewBox="0 0 512 512" xmlns="http://www.w3.org/2000/svg"><path d="m439.05 381.1h-9.49c14.77-8.89 24.84-26.39 24.84-46.48 0-27.99-19.54-50.94-44.11-52.6v-111.5h21.63c2.25 0 4.3-1.25 5.33-3.25s.86-4.4-.45-6.23l-46.5-65.33c-1.13-1.58-2.95-2.52-4.89-2.52s-3.76.94-4.89 2.52l-46.51 65.33c-1.3 1.83-1.47 4.23-.45 6.23 1.03 2 3.09 3.25 5.33 3.25h21.63v162.81c-.01.43-.03.86-.03 1.3s.02.86.03 1.3v.45h.01c.57 19.35 10.46 36.1 24.8 44.73h-9.49c-10.56 0-20.69 2.83-29.64 8.21-8.97-11.67-21.68-20.33-36.33-24.12l17.29-17.29c4.32-4.32 5.03-10.93 1.71-16.07l-13.46-20.84c-.2-.31-.21-.5-.05-.83 1.79-3.72 3.39-7.57 4.75-11.44.12-.35.27-.47.63-.55l24.24-5.21c5.98-1.29 10.15-6.45 10.15-12.57v-36.9c0-6.12-4.18-11.28-10.15-12.57l-24.24-5.21c-.36-.08-.5-.21-.63-.55-1.36-3.88-2.96-7.72-4.75-11.44-.16-.33-.15-.53.05-.84l13.46-20.83c3.32-5.14 2.62-11.74-1.71-16.07l-11.98-11.98v-71.7h21.63c2.25 0 4.3-1.25 5.33-3.25s.86-4.4-.45-6.23l-46.49-65.31c-1.13-1.58-2.95-2.52-4.89-2.52s-3.76.94-4.89 2.52l-46.51 65.33c-1.3 1.83-1.47 4.23-.45 6.23 1.03 2 3.09 3.25 5.33 3.25h21.63v68.53l-1.25.81c-.31.2-.5.21-.83.05-3.72-1.79-7.57-3.39-11.44-4.75-.35-.12-.47-.27-.55-.63l-5.21-24.24c-1.29-5.98-6.45-10.15-12.57-10.15h-36.9c-6.12 0-11.28 4.18-12.57 10.15l-5.21 24.24c-.08.36-.21.5-.55.62-3.88 1.36-7.73 2.96-11.44 4.75-.33.16-.53.15-.84-.05l-20.83-13.46c-5.14-3.32-11.74-2.62-16.07 1.71l-26.07 26.09c-4.33 4.32-5.03 10.93-1.71 16.07l13.46 20.83c.2.31.21.5.05.83-1.79 3.72-3.39 7.57-4.75 11.44-.12.35-.27.47-.63.55l-24.23 5.21c-5.98 1.28-10.15 6.45-10.15 12.57v36.9c0 3.85 1.65 7.31 4.37 9.68-13.15 9.35-21.9 25.82-21.9 44.54 0 20.09 10.07 37.59 24.84 46.48h-9.49c-31.95 0-57.95 26-57.95 57.95v51.95c0 3.31 2.69 6 6 6h136.94 196.12 136.94c3.31 0 6-2.69 6-6v-51.95c0-31.95-26-57.95-57.95-57.95zm-72.52-222.58h-15.99l34.87-48.98 34.88 48.98h-15.99c-3.31 0-6 2.69-6 6v118.42c-10.14 2.26-19.11 8.19-25.76 16.51v-134.93c-.01-3.32-2.7-6-6.01-6zm6 177.45v-2.69c.61-21.82 16.04-39.36 34.92-39.36 19.27 0 34.95 18.26 34.95 40.7s-15.68 40.7-34.95 40.7c-18.89.01-34.31-17.53-34.92-39.35zm-53.73 2.37c.24.37.2.76-.11 1.07l-23.69 23.69c-.63-.02-1.26-.05-1.9-.05h-15.2c15.03-7.51 26.46-22.5 30.55-40.75zm-47.35-89.15c-2.71-11.98-9.21-22.86-18.59-30.97-10.47-9.04-23.87-14.02-37.73-14.02-31.84 0-57.75 25.91-57.75 57.75 0 27.25 19.24 50.72 45.44 56.42.76 4.67 1.98 9.16 3.63 13.39-34.72-4.29-61.69-33.95-61.69-69.81 0-38.8 31.57-70.37 70.37-70.37 36.92 0 67.26 28.58 70.12 64.78-4.23-3.08-8.87-5.51-13.8-7.17zm-69.48 56.58c-19-5.71-32.59-23.43-32.59-43.82 0-25.23 20.52-45.75 45.75-45.75 19.85 0 36.88 12.43 43.17 30.51-.76-.04-1.53-.07-2.3-.07-29.3.01-53.22 26.38-54.03 59.13zm11.97 1.69c0-26.92 18.87-48.81 42.07-48.81s42.07 21.9 42.07 48.81-18.88 48.82-42.08 48.82-42.06-21.9-42.06-48.82zm57.49-227.13h-15.99l34.88-48.98 34.88 48.98h-15.99c-3.31 0-6 2.69-6 6v65.7l-2.12-2.12c-4.32-4.33-10.93-5.03-16.07-1.71l-7.58 4.9v-66.77c-.01-3.32-2.7-6-6.01-6zm-201.83 254.29c0-22.44 15.68-40.7 34.95-40.7s34.95 18.26 34.95 40.7-15.68 40.7-34.95 40.7-34.95-18.25-34.95-40.7zm81.9 0c0-29.06-21.06-52.7-46.95-52.7-3.08 0-6.08.34-8.99.98l-7.75-1.67c-.43-.09-.67-.4-.67-.83v-36.9c0-.44.25-.74.67-.83l24.23-5.21c4.41-.95 7.94-4.06 9.43-8.31 1.21-3.45 2.63-6.88 4.23-10.2 1.96-4.07 1.67-8.77-.78-12.56l-13.46-20.83c-.24-.37-.2-.76.11-1.07l26.09-26.09c.31-.31.7-.35 1.07-.11l20.83 13.46c3.79 2.45 8.49 2.74 12.56.78 3.31-1.6 6.74-3.02 10.2-4.23 4.26-1.49 7.37-5.02 8.31-9.43l5.21-24.24c.09-.43.4-.67.83-.67h36.9c.44 0 .74.25.83.67l5.21 24.24c.95 4.41 4.06 7.94 8.31 9.43 3.45 1.21 6.88 2.63 10.2 4.23 4.07 1.96 8.77 1.67 12.56-.78l20.83-13.46c.37-.24.76-.2 1.07.11l26.09 26.09c.31.31.35.7.11 1.07l-13.46 20.83c-2.45 3.79-2.75 8.49-.78 12.56 1.6 3.31 3.02 6.74 4.23 10.2 1.49 4.26 5.02 7.36 9.43 8.31l24.24 5.21c.43.09.67.4.67.83v36.9c0 .44-.25.74-.67.83l-24.23 5.21c-4.36.94-7.85 3.99-9.38 8.18-1.9-9.92-5.97-18.95-11.61-26.43.16-2.08.26-4.16.26-6.24 0-45.42-36.95-82.37-82.37-82.37s-82.37 36.95-82.37 82.37c0 44.7 35.8 81.17 80.23 82.31 5.49 8.1 12.75 14.61 21.12 18.79h-15.2c-21.62 0-40.87 10.31-53.12 26.26-8.95-5.38-19.08-8.21-29.64-8.21h-9.49c14.79-8.89 24.86-26.39 24.86-46.48zm-124.5 104.43c0-25.34 20.61-45.95 45.95-45.95h63.2c8.26 0 16.19 2.18 23.22 6.34-4.73 9.18-7.42 19.57-7.42 30.58v54.98h-2.68v-48.63c0-3.31-2.69-6-6-6s-6 2.69-6 6v48.63h-65.43v-48.63c0-3.31-2.69-6-6-6s-6 2.69-6 6v48.63h-32.84zm321.06 45.95h-33.89v-58.12c0-3.31-2.69-6-6-6s-6 2.69-6 6v58.12h-92.34v-58.12c0-3.31-2.69-6-6-6s-6 2.69-6 6v58.12h-33.89v-54.97c0-30.31 24.66-54.97 54.97-54.97h74.17c30.31 0 54.97 24.66 54.97 54.97v54.97zm136.94 0h-32.83v-48.63c0-3.31-2.69-6-6-6s-6 2.69-6 6v48.63h-65.43v-48.63c0-3.31-2.69-6-6-6s-6 2.69-6 6v48.63h-2.68v-54.97c0-11.02-2.69-21.41-7.42-30.58 7.03-4.16 14.96-6.34 23.21-6.34h63.2c25.34 0 45.95 20.61 45.95 45.95z"/></svg>