<svg id="Layer_1" enable-background="new 0 0 512 512" viewBox="0 0 512 512" xmlns="http://www.w3.org/2000/svg" width="300" height="300" version="1.1" xmlns:xlink="http://www.w3.org/1999/xlink" xmlns:svgjs="http://svgjs.dev/svgjs"><g width="100%" height="100%" transform="matrix(1,0,0,1,0,0)"><path clip-rule="evenodd" d="m121.257 79.351c22.072 0 39.968 17.896 39.968 39.968s-17.896 39.968-39.968 39.968-39.968-17.895-39.968-39.968 17.896-39.968 39.968-39.968zm231.129 155.753h-37.695c-4.418 0-8 3.582-8 8s3.582 8 8 8h152.105v-.018c.361-.001.726-.025 1.094-.076 4.366-.604 7.416-4.633 6.813-9-2.915-20.746-13.331-39.083-28.416-52.18-28.91-25.099-71.079-27.709-102.775-6.359-45.968-53.845-129.053-53.843-175.022 0-31.696-21.35-73.865-18.739-102.775 6.359-14.935 12.966-25.292 31.069-28.325 51.561-.986 5.388 2.895 9.713 7.815 9.713h152.105c4.418 0 8-3.582 8-8s-3.582-8-8-8h-37.695c10.51-44.194 50.15-76.033 96.387-76.033 46.235 0 85.874 31.839 96.384 76.033zm-209.113 0h-88.248c12.655-44.762 65.307-64.105 103.957-38.8-7.451 11.668-12.855 24.771-15.709 38.8zm209.744-38.799c38.645-25.305 91.302-5.967 103.958 38.799h-88.249c-2.854-14.029-8.259-27.131-15.709-38.799zm-119.434 50.799 12.591-21.808h33.861l-30.445 45.121c-4.037 5.681.132 12.787 6.41 12.787h43.693l-47.754 53.565 11.551-35.065c1.954-5.543-2.094-10.816-7.49-10.816h-47.714zm-14.051-7.556c.075-.149.154-.297.238-.444l14.612-25.309c1.299-2.663 4.032-4.499 7.194-4.499h53.497c6.279 0 10.448 7.106 6.41 12.787l-30.445 45.121h46.492v.01c6.837-.003 10.566 8.141 5.969 13.302l-85.01 95.354c-5.85 6.824-16.47.629-13.766-7.584l20.225-61.399h-50.478v-.033c-6.058.005-9.98-6.6-6.906-11.936zm36.468-221.548c29.026 0 52.56 23.533 52.56 52.56s-23.534 52.559-52.56 52.559c-29.027 0-52.56-23.533-52.56-52.559.001-29.028 23.534-52.56 52.56-52.56zm25.853 26.707c-14.277-14.277-37.428-14.277-51.705 0-14.277 14.276-14.276 37.428 0 51.705s37.428 14.276 51.705 0c14.276-14.276 14.276-37.428 0-51.705zm108.891 34.644c22.072 0 39.968 17.896 39.968 39.968s-17.896 39.968-39.968 39.968-39.968-17.895-39.968-39.968 17.896-39.968 39.968-39.968zm16.948 23.019c9.359 9.359 9.359 24.538 0 33.897-15.058 15.058-40.916 4.342-40.916-16.948 0-21.291 25.858-32.007 40.916-16.949zm67.104 172.834c0-4.418-3.582-8-8-8h-86.663c-4.418 0-8 3.582-8 8 0 64.14-51.993 116.133-116.133 116.133-64.139 0-116.133-51.993-116.133-116.133 0-4.418-3.582-8-8-8h-86.663c-4.418 0-8 3.582-8 8v34.381c0 4.418 3.582 8 8 8h26.959c4.697 20.436 12.834 40.005 23.876 57.645l-19.061 19.061c-3.124 3.124-3.124 8.189 0 11.313l48.623 48.623c3.124 3.124 8.189 3.124 11.313 0l19.062-19.062c17.643 11.041 37.208 19.178 57.645 23.876v26.959c0 4.418 3.582 8 8 8h68.762c4.418 0 8-3.582 8-8v-26.959c20.436-4.698 40.005-12.835 57.645-23.876l19.061 19.062c3.124 3.124 8.189 3.124 11.313 0l48.623-48.623c3.124-3.124 3.124-8.189 0-11.313l-19.062-19.062c11.041-17.642 19.178-37.208 23.876-57.645h26.959c4.418 0 8-3.582 8-8v-34.38zm-16 26.381v-18.381h-70.904c-4.148 69.445-61.798 124.133-131.892 124.133-70.093 0-127.745-54.688-131.892-124.133h-70.904v18.381h25.429v.013c3.759-.004 7.112 2.658 7.844 6.487 2.226 11.55 5.585 22.665 9.958 33.22 4.39 10.597 9.851 20.717 16.258 30.229 2.335 3.132 2.081 7.586-.763 10.43l-17.984 17.984 37.31 37.311 17.984-17.984.005.005c2.65-2.656 6.894-3.15 10.12-.974 9.602 6.496 19.827 12.027 30.539 16.465 10.416 4.315 21.378 7.643 32.764 9.869 3.922.514 6.951 3.869 6.951 7.931v25.429h52.762v-25.429h.013c-.004-3.759 2.658-7.112 6.487-7.844 11.55-2.226 22.665-5.586 33.22-9.958 10.597-4.39 20.717-9.851 30.229-16.258 3.132-2.335 7.586-2.081 10.43.763l17.984 17.984 37.31-37.311-17.984-17.984.005-.005c-2.656-2.65-3.15-6.893-.974-10.12 6.496-9.602 12.027-19.827 16.465-30.539 4.315-10.416 7.643-21.378 9.869-32.764.514-3.922 3.869-6.951 7.931-6.951h25.43zm-320.591-199.215c-15.058-15.058-40.916-4.342-40.916 16.948s25.859 32.006 40.916 16.948c9.359-9.359 9.359-24.537 0-33.896z" fill-rule="evenodd" fill="#6b7280" fill-opacity="1" data-original-color="#000000ff" stroke="none" stroke-opacity="1"/></g></svg>